<ttFont>
          <CharString index="0">
            rmoveto
            -66 callgsubr
            -30 22 -22 30 30 24 22 30 -67 callsubr
            hvcurveto
            return
          </CharString>
          <CharString index="1">
            79 55 44 69 6 8 0 -1 5 vhcurveto
            48 callgsubr
            return
          </CharString>
          <CharString index="2">
            -63 callgsubr
            -39 12 -24 hvcurveto
            66 hlineto
            -8 24 -5 386 callsubr
            24 vhcurveto
            return
          </CharString>
          <CharString index="3">
            -102 callgsubr
            vlineto
            endchar
          </CharString>
          <CharString index="4">
            309 callgsubr
            -76 -53 -43 -76 -44 -37 12 16 -31 hvcurveto
            -72 -55 callsubr
            return
          </CharString>
          <CharString index="5">
            229 callgsubr
            273 callgsubr
            -184 274 rlineto
            -5 33 53 -4 84 hhcurveto
            return
          </CharString>
          <CharString index="6">
            46 94 vvcurveto
            38 -10 32 -15 23 vhcurveto
            return
          </CharString>
          <CharString index="7">
            -80 callgsubr
            43 63 callsubr
            return
          </CharString>
          <CharString index="8">
            -81 callgsubr
            vlineto
            endchar
          </CharString>
          <CharString index="9">
            -10 17 -5 19 21 vvcurveto
            40 21 36 49 51 36 -32 -75 -91 -65 -54 -111 vhcurveto
            -99 -70 hlineto
            421 callgsubr
            131 callsubr
            33 36 callsubr
            hvcurveto
            return
          </CharString>
          <CharString index="10">
            -116 -67 116 -575 111 callsubr
            67 -115 return
          </CharString>
          <CharString index="11">
            35 -73 hhcurveto
            -106 -66 -87 -119 -149 93 -114 147 return
          </CharString>
          <CharString index="12">
            rmoveto
            13 38 rlineto
            96 283 12 42 0 vvcurveto
            0 11 -42 94 -282 vhcurveto
            13 -39 rlineto
            82 -246 rmoveto
            87 hlineto
            -231 674 rlineto
            -112 hlineto
            -235 -674 rlineto
            87 hlineto
            60 177 rlineto
            285 hlineto
            endchar
          </CharString>
          <CharString index="13">
            93 -4 37 -20 -50 vvcurveto
            -57 -49 -31 -74 -66 -74 24 31 -50 vhcurveto
            -77 vlineto
            -26 49 68 -18 73 hhcurveto
            126 76 65 90 1 hvcurveto
            98 -72 37 -108 3 vhcurveto
            return
          </CharString>
          <CharString index="14">
            11 21 27 6 30 hhcurveto
            23 27 -4 -9 28 hvcurveto
            69 vlineto
            6 -26 -27 4 -30 hhcurveto
            return
          </CharString>
          <CharString index="15">
            rmoveto
            -70 -240 rlineto
            -39 -134 -56 -205 0 vvcurveto
            0 -57 234 -26 105 vhcurveto
            -63 250 rlineto
            -85 hlineto
            176 -674 rlineto
            103 hlineto
            63 213 rlineto
            65 219 31 118 0 vvcurveto
            0 33 -117 68 -220 vhcurveto
            65 -213 rlineto
            104 hlineto
            158 674 rlineto
            -82 hlineto
            -57 -251 rlineto
            -28 -120 -46 -221 0 vvcurveto
            0 -69 230 -33 112 vhcurveto
            -74 240 rlineto
            return
          </CharString>
          <CharString index="16">
            rmoveto
            -62 -75 51 123 109 53 77 88 62 74 -50 -141 -121 -77 -48 -63 hvcurveto
            140 424 rmoveto
            -84 vlineto
            54 -29 -48 37 -76 hhcurveto
            -125 -81 -111 -148 -159 101 -83 109 68 50 33 53 31 hvcurveto
            -57 vlineto
            -115 -64 -46 -93 -50 -57 12 25 -43 vhcurveto
            -79 vlineto
            -22 46 59 -9 52 hhcurveto
            125 104 70 163 hvcurveto
            466 vlineto
            endchar
          </CharString>
          <CharString index="17">
            -67 135 -231 -85 callgsubr
            return
          </CharString>
          <CharString index="18">
            -25 -6 -17 -21 -28 -73 callgsubr
            return
          </CharString>
          <CharString index="19">
            97 hlineto
            46 166 rlineto
            53 189 15 64 0 vvcurveto
            0 15 -63 55 -190 vhcurveto
            48 -166 rlineto
            97 hlineto
            160 507 rlineto
            -81 hlineto
            -51 -167 rlineto
            -63 -205 -14 -59 0 vvcurveto
            0 -14 59 -61 205 vhcurveto
            -49 167 rlineto
            -84 hlineto
            -48 -167 rlineto
            -58 -199 -15 -64 0 vvcurveto
            0 -13 65 -58 197 vhcurveto
            -49 168 rlineto
            -84 hlineto
            return
          </CharString>
          <CharString index="20">
            -141 65 -51 115 vhcurveto
            61 1 44 23 28 35 184 callsubr
            310 vlineto
            return
          </CharString>
          <CharString index="21">
            rmoveto
            154 86 398 callsubr
            145 -81 117 -159 -143 -93 -117 -147 -144 86 401 callgsubr
            hvcurveto
            453 vmoveto
            114 44 -91 -102 -102 -52 -88 -106 -96 -58 89 101 102 53 91 101 hvcurveto
            return
          </CharString>
          <CharString index="22">
            rmoveto
            -15 -26 -33 -10 -40 hhcurveto
            -83 -62 58 83 37 10 32 19 24 hvcurveto
            return
          </CharString>
          <CharString index="23">
            26 -48 -56 10 -67 hhcurveto
            -191 -148 -137 -206 -218 143 -130 199 61 66 13 29 43 hvcurveto
            85 vlineto
            -30 -40 -61 -21 -63 hhcurveto
            -157 -106 105 167 162 112 105 142 82 37 -15 -28 52 hvcurveto
            return
          </CharString>
          <CharString index="24">
            16 -76 callsubr
            return
          </CharString>
          <CharString index="25">
            315 callgsubr
            -90 -54 -61 -66 -34 7 -16 5 -14 vhcurveto
            77 hlineto
            -4 11 -8 13 32 35 callsubr
            return
          </CharString>
          <CharString index="26">
            64 -41 -53 31 -74 hhcurveto
            -28 -30 -5 -1 -3 hvcurveto
            -68 vlineto
            1 4 30 6 24 hhcurveto
            52 37 -19 -37 29 hvcurveto
            92 -118 -62 55 rlineto
            48 -55 -39 23 -58 hhcurveto
            -24 -27 -7 -1 return
          </CharString>
          <CharString index="27">
            -45 -19 -22 -41 -31 -30 14 0 vhcurveto
            -69 vlineto
            -7 17 26 -6 30 hhcurveto
            return
          </CharString>
          <CharString index="28">
            74 54 48 69 22 20 -3 -6 17 return
          </CharString>
          <CharString index="29">
            rmoveto
            127 156 rlineto
            -80 hlineto
            -84 -105 -86 105 rlineto
            -80 hlineto
            127 -156 rlineto
            return
          </CharString>
          <CharString index="30">
            rmoveto
            -77 -28 -49 -38 -66 hhcurveto
            -10 -13 1 3 -11 hvcurveto
            -71 vlineto
            -4 13 15 -1 14 hhcurveto
            83 77 40 147 55 hvcurveto
            183 494 rlineto
            -85 hlineto
            -59 -167 rlineto
            -72 -204 -8 -26 0 vvcurveto
            0 -9 26 -80 204 vhcurveto
            -66 167 rlineto
            -89 hlineto
            endchar
          </CharString>
          <CharString index="31">
            396 callgsubr
            -54 -46 return
          </CharString>
          <CharString index="32">
            -81 callsubr
            -3 hvcurveto
            -70 vlineto
            return
          </CharString>
          <CharString index="33">
            -79 callsubr
            vhcurveto
            return
          </CharString>
          <CharString index="34">
            -20 24 -28 16 -34 5 rrcurveto
            52 14 40 43 70 vvcurveto
            84 -59 57 -112 -37 -37 -8 -10 -24 vhcurveto
            -74 vlineto
            12 22 38 12 37 hhcurveto
            65 29 -30 -52 -50 -34 -35 -73 hvcurveto
            -32 -70 34 hlineto
            return
          </CharString>
          <CharString index="35">
            -74 callsubr
            69 vlineto
            5 return
          </CharString>
          <CharString index="36">
            -66 -6 -29 -69 vhcurveto
            -66 -65 hlineto
            -145 44 119 -122 175 hhcurveto
            return
          </CharString>
          <CharString index="37">
            -69 -16 -55 -48 -68 hhcurveto
            -58 -46 36 58 65 60 41 69 21 hvcurveto
            -5 23 23 -2 25 hhcurveto
            return
          </CharString>
          <CharString index="38">
            81 284 hlineto
            189 -5 104 0 vhcurveto
            0 57 -104 115 -191 vhcurveto
            169 -282 rlineto
            102 674 -81 -285 hlineto
            -194 4 -97 0 vhcurveto
            0 -54 97 -117 195 vhcurveto
            -169 284 rlineto
            -102 hlineto
            return
          </CharString>
          <CharString index="39">
            21 -38 -47 7 -31 hhcurveto
            -170 -93 -129 -135 -140 94 -123 167 40 50 12 17 28 hvcurveto
            75 vlineto
            -18 -27 -42 -15 -39 hhcurveto
            -126 -62 89 102 -1 hvcurveto
            return
          </CharString>
          <CharString index="40">
            29 -24 24 -30 return
          </CharString>
          <CharString index="41">
            107 -317 hlineto
            -162 106 -62 140 52 57 10 16 38 vhcurveto
            72 vlineto
            -20 -38 -56 -12 -47 hhcurveto
            -102 -72 42 117 hvcurveto
            316 248 -142 vlineto
            -58 -27 -35 -65 -14 -15 2 4 -10 vhcurveto
            -65 vlineto
            -4 13 17 -2 15 hhcurveto
            107 57 63 91 hvcurveto
            146 88 vlineto
            endchar
          </CharString>
          <CharString index="42">
            rmoveto
            -30 22 -22 30 30 24 22 30 -67 callsubr
            -66 callgsubr
            vhcurveto
            endchar
          </CharString>
          <CharString index="43">
            85 -105 rlineto
            80 hlineto
            -127 156 rlineto
            return
          </CharString>
          <CharString index="44">
            rmoveto
            -29 22 -23 30 -79 callgsubr
            vhcurveto
            202 hmoveto
            424 callsubr
            30 22 23 29 29 -22 22 -30 -29 -22 -22 -29 vhcurveto
            return
          </CharString>
          <CharString index="45">
            -40 -38 44 -56 hhcurveto
            -44 -39 -33 -38 -18 hvcurveto
            43 -37 rlineto
            30 17 19 18 32 hhcurveto
            return
          </CharString>
          <CharString index="46">
            -144 79 308 vlineto
            return
          </CharString>
          <CharString index="47">
            344 callgsubr
            21 19 -6 -7 14 vhcurveto
            -396 -2 callsubr
          </CharString>
          <CharString index="48">
            213 callgsubr
            -26 -26 -6 -9 -18 vhcurveto
            -65 vlineto
            8 15 22 5 20 122 callgsubr
            -25 -6 -18 438 callsubr
            13 -33 14 -30 199 callsubr
            return
          </CharString>
          <CharString index="49">
            -76 -33 -33 -61 -65 -24 44 65 vhcurveto
            227 183 vlineto
            return
          </CharString>
          <CharString index="50">
            575 -14 callsubr
          </CharString>
          <CharString index="51">
            rmoveto
            230 256 71 -256 231 290 71 -371 -674 376 71 vlineto
            endchar
          </CharString>
          <CharString index="52">
            vlineto
            -13 32 42 -9 46 hhcurveto
            120 79 73 107 -1 callgsubr
            hvcurveto
            return
          </CharString>
          <CharString index="53">
            -120 55 -57 111 113 60 63 114 vhcurveto
            225 return
          </CharString>
          <CharString index="54">
            -79 -55 -45 -69 -6 -8 233 callsubr
            5 9 -1 9 hhcurveto
            108 90 71 120 108 -75 73 -109 -48 -40 -18 -29 -28 hvcurveto
            142 vlineto
            endchar
          </CharString>
          <CharString index="55">
            575 94 callsubr
          </CharString>
          <CharString index="56">
            -67 214 -137 vlineto
            -102 callsubr
            return
          </CharString>
          <CharString index="57">
            178 callgsubr
            -170 -11 callgsubr
            return
          </CharString>
          <CharString index="58">
            85 41 callsubr
            -60 42 56 -23 vhcurveto
            -70 -226 76 113 hlineto
            -32 36 52 84 callgsubr
            -10 28 -19 23 hvcurveto
            return
          </CharString>
          <CharString index="59">
            89 -17 -70 52 332 callsubr
            -18 hvcurveto
            -67 vlineto
            9 19 29 5 31 hhcurveto
            77 45 -49 -71 -76 -47 -53 -90 -60 -50 19 22 -36 hvcurveto
            -74 vlineto
            -16 30 57 -19 65 hhcurveto
            119 81 74 101 10 hvcurveto
            return
          </CharString>
          <CharString index="60">
            128 callgsubr
            79 54 44 69 6 9 372 callgsubr
            66 vlineto
            2 -6 -9 1 -8 hhcurveto
            return
          </CharString>
          <CharString index="61">
            11 15 1 2 12 hvcurveto
            return
          </CharString>
          <CharString index="62">
            79 -52 callsubr
          </CharString>
          <CharString index="63">
            vvcurveto
            -18 callsubr
            return
          </CharString>
          <CharString index="64">
            -9 callgsubr
            hlineto
            endchar
          </CharString>
          <CharString index="65">
            78 162 78 return
          </CharString>
          <CharString index="66">
            642 rmoveto
            return
          </CharString>
          <CharString index="67">
            rmoveto
            91 callgsubr
            return
          </CharString>
          <CharString index="68">
            -91 -61 -50 -67 -71 -35 37 97 vhcurveto
            183 234 vlineto
            return
          </CharString>
          <CharString index="69">
            86 39 -36 -55 -80 -67 -26 -54 -49 -34 12 19 -38 hvcurveto
            -74 vlineto
            -14 33 44 -10 45 hhcurveto
            127 71 70 96 hvcurveto
            return
          </CharString>
          <CharString index="70">
            hhcurveto
            -84 -70 40 81 -19 hvcurveto
            27 callgsubr
            return
          </CharString>
          <CharString index="71">
            61 1 44 24 28 37 rrcurveto
            -238 -45 callsubr
          </CharString>
          <CharString index="72">
            -71 -28 -57 -55 -78 vvcurveto
            -94 72 -64 107 60 61 31 36 19 vhcurveto
            -112 77 vlineto
            return
          </CharString>
          <CharString index="73">
            136 210 -280 111 callsubr
            return
          </CharString>
          <CharString index="74">
            -118 -226 -9 -25 0 vvcurveto
            0 -8 25 -116 226 vhcurveto
            -51 99 rlineto
            -94 hlineto
            229 -424 rlineto
            -250 81 251 vlineto
            endchar
          </CharString>
          <CharString index="75">
            -64 callgsubr
            97 761 rmoveto
            147 67 -624 -67 398 323 callgsubr
            hintmask 1101110101000000
            237 callsubr
            94 128 93 -128 rlineto
            95 hlineto
            -113 147 rlineto
            49 callsubr
            34 hhcurveto
            44 28 -25 -36 -56 -54 -32 -69 -97 -70 64 93 280 callsubr
            hvcurveto
            hintmask 1011110110000000
            32 33 -4 -6 37 hvcurveto
            endchar
          </CharString>
          <CharString index="76">
            rlineto
            19 -25 -21 8 -23 hhcurveto
            -59 -31 -75 -64 -4 hvcurveto
            50 -25 rlineto
            41 12 19 34 31 hhcurveto
            12 13 -5 -10 15 hvcurveto
            133 -95 -214 -38 rlineto
            -53 -10 -21 -27 -36 vvcurveto
            -44 30 -47 18 -22 vhcurveto
            55 13 rlineto
            -8 20 -10 25 22 vvcurveto
            25 11 17 31 6 vhcurveto
            return
          </CharString>
          <CharString index="77">
            11 21 27 6 30 hhcurveto
            22 27 -4 -9 29 118 callsubr
            return
          </CharString>
          <CharString index="78">
            rmoveto
            -18 -26 440 callgsubr
            -82 -59 58 83 37 10 32 19 24 hvcurveto
            478 263 rmoveto
            return
          </CharString>
          <CharString index="79">
            78 -68 67 -102 -97 -66 -74 -75 -59 29 -46 46 -30 vhcurveto
            return
          </CharString>
          <CharString index="80">
            -2 -5 -12 hvcurveto
            -65 vlineto
            4 9 19 3 15 hhcurveto
            return
          </CharString>
          <CharString index="81">
            346 rmoveto
            -210 229 210 hlineto
            return
          </CharString>
          <CharString index="82">
            67 -19 callgsubr
            return
          </CharString>
          <CharString index="83">
            rmoveto
            140 64 -140 126 -79 -126 -81 -64 81 -295 hlineto
            -97 44 -56 106 21 33 7 11 20 vhcurveto
            75 vlineto
            -13 -17 -27 -10 -25 hhcurveto
            -51 -25 28 53 hvcurveto
            endchar
          </CharString>
          <CharString index="84">
            135 callsubr
            -22 callsubr
            return
          </CharString>
          <CharString index="85">
            -209 205 rlineto
            -93 callsubr
            return
          </CharString>
          <CharString index="86">
            -78 callsubr
            endchar
          </CharString>
          <CharString index="87">
            -48 -41 -19 -29 -28 hvcurveto
            return
          </CharString>
          <CharString index="88">
            86 41 callsubr
            -61 42 56 -23 vhcurveto
            -70 -226 76 113 hlineto
            -32 36 53 84 callgsubr
            -11 29 -19 23 hvcurveto
            return
          </CharString>
          <CharString index="89">
            24 callsubr
            vhcurveto
            -49 callgsubr
            return
          </CharString>
          <CharString index="90">
            77 -51 64 -92 -90 -54 -61 -66 -34 7 356 callsubr
            21 32 47 46 20 -34 -42 -82 -86 -46 -170 -36 vhcurveto
            16 return
          </CharString>
          <CharString index="91">
            -60 425 callsubr
            78 -104 callgsubr
            hlineto
            return
          </CharString>
          <CharString index="92">
            -93 51 -66 114 113 51 66 93 vhcurveto
            return
          </CharString>
          <CharString index="93">
            116 67 vlineto
            endchar
          </CharString>
          <CharString index="94">
            19 18 0 1 17 hvcurveto
            -51 -37 -21 -58 -66 vvcurveto
            -134 85 -89 131 393 callsubr
            68 vlineto
            -1 -6 -10 -1 -7 hhcurveto
            -96 -48 65 92 105 return
          </CharString>
          <CharString index="95">
            -55 -41 -26 -59 -64 vvcurveto
            -135 120 -96 155 35 22 0 11 42 vhcurveto
            65 vlineto
            -9 -29 -31 -3 -32 hhcurveto
            -122 -82 72 93 77 54 74 129 43 33 -9 -14 26 hvcurveto
            -130 -59 rlineto
            -35 -15 -18 -21 -29 vvcurveto
            -43 46 -47 26 -18 vhcurveto
            53 24 rlineto
            -24 25 -18 30 20 vvcurveto
            14 8 10 15 6 vhcurveto
            124 56 rlineto
            8 -15 4 -16 -15 vvcurveto
            -31 -7 -22 -6 -18 vhcurveto
            75 hlineto
            6 14 5 31 30 vvcurveto
            84 -70 93 -162 vhcurveto
            return
          </CharString>
          <CharString index="96">
            42 callgsubr
            46 78 return
          </CharString>
          <CharString index="97">
            vvcurveto
            -3 callsubr
            return
          </CharString>
          <CharString index="98">
            -31 -26 -14 -39 -37 vvcurveto
            -72 52 -42 43 -7 vhcurveto
            return
          </CharString>
          <CharString index="99">
            168 callsubr
            575 115 vlineto
            endchar
          </CharString>
          <CharString index="100">
            19 callsubr
            vhcurveto
            return
          </CharString>
          <CharString index="101">
            293 callsubr
            -8 hlineto
            24 -21 -36 27 -72 hhcurveto
            -87 hlineto
            -105 callsubr
            55 hlineto
            48 21 -14 -25 8 hvcurveto
            -8 vlineto
            return
          </CharString>
          <CharString index="102">
            95 31 callgsubr
          </CharString>
          <CharString index="103">
            rmoveto
            -18 -27 440 callgsubr
            -81 -59 58 83 37 10 32 19 24 hvcurveto
            478 263 rmoveto
            -668 -67 474 251 callgsubr
            -209 205 rlineto
            179 callsubr
            -80 108 -5 hvcurveto
            -165 -149 428 callgsubr
            248 225 rlineto
            -160 -95 callgsubr
          </CharString>
          <CharString index="104">
            -149 93 -114 147 11 15 1 2 12 vhcurveto
            65 vlineto
            -2 -10 -11 0 -6 hhcurveto
            -120 -53 90 106 return
          </CharString>
          <CharString index="105">
            79 -99 callsubr
          </CharString>
          <CharString index="106">
            vlineto
            -87 callsubr
            return
          </CharString>
          <CharString index="107">
            vstem
            396 -41 callsubr
            -418 -67 418 hlineto
            -18 -401 rmoveto
            -18 -27 -32 -11 -40 hhcurveto
            -81 -59 58 83 37 10 32 19 24 hvcurveto
            289 -110 rmoveto
            -12 -23 -13 -20 -15 -18 -208 204 rcurveline
            179 callsubr
            -81 109 -4 hvcurveto
            -166 -149 428 callgsubr
            295 266 rlineto
            return
          </CharString>
          <CharString index="108">
            -67 208 vlineto
            387 callsubr
            -56 -53 -45 84 callsubr
            19 -149 92 -81 110 -7 -194 -176 rcurveline
            113 hlineto
            return
          </CharString>
          <CharString index="109">
            -87 -63 -55 -91 -80 -16 callsubr
            return
          </CharString>
          <CharString index="110">
            299 callgsubr
            104 84 53 114 21 30 -2 -3 19 hvcurveto
            return
          </CharString>
          <CharString index="111">
            215 -279 rlineto
            97 hlineto
            -22 callgsubr
            return
          </CharString>
          <CharString index="112">
            -39 -20 -23 -36 -45 vvcurveto
            -75 51 -38 71 -7 vhcurveto
            return
          </CharString>
          <CharString index="113">
            -67 304 callsubr
            return
          </CharString>
          <CharString index="114">
            rmoveto
            65 hlineto
            111 192 rlineto
            return
          </CharString>
          <CharString index="115">
            111 115 71 143 return
          </CharString>
          <CharString index="116">
            89 callgsubr
            79 55 44 69 6 8 0 -1 5 hvcurveto
            48 callgsubr
            return
          </CharString>
          <CharString index="117">
            -102 69 -69 96 -7 vhcurveto
            -140 -145 -4 callgsubr
            181 192 rlineto
            -147 79 308 vlineto
            return
          </CharString>
          <CharString index="118">
            vstem
            365 507 rmoveto
            -17 callsubr
            -159 112 -70 123 -1 -176 -157 rcurveline
            105 hlineto
            338 296 -53 55 rlineto
            -81 -52 -74 -47 -86 hhcurveto
            -84 -58 38 80 -19 hvcurveto
            8 callgsubr
            return
          </CharString>
          <CharString index="119">
            rmoveto
            111 67 -540 -67 350 -118 hlineto
            209 callsubr
            -103 60 402 callgsubr
            95 128 92 409 callgsubr
            36 12 21 12 rlinecurve
            71 vlineto
            -18 -32 -56 -20 -54 hhcurveto
            299 callgsubr
            104 84 53 114 24 26 -2 -3 21 hvcurveto
            endchar
          </CharString>
          <CharString index="120">
            -42 -31 -21 -43 -44 vvcurveto
            -86 78 -94 168 39 39 4 13 53 vhcurveto
            67 vlineto
            -12 -43 -47 -6 -35 hhcurveto
            -124 -50 51 62 return
          </CharString>
          <CharString index="121">
            -149 19 93 -66 108 hhcurveto
            73 50 198 callsubr
            120 vlineto
            endchar
          </CharString>
          <CharString index="122">
            31 279 rmoveto
            211 -279 -4 callgsubr
            -212 279 rlineto
            11 hlineto
            96 3 66 55 96 vvcurveto
            142 100 67 -420 -67 242 -135 vlineto
            -61 -34 -35 -88 vhcurveto
            -67 hlineto
            return
          </CharString>
          <CharString index="123">
            -78 6 -36 10 41 vvcurveto
            40 34 20 58 vhcurveto
            160 return
          </CharString>
          <CharString index="124">
            rmoveto
            234 -176 hlineto
            -91 -61 -50 -67 -71 -35 37 97 vhcurveto
            313 183 rmoveto
            160 67 -647 439 callsubr
            hlineto
            110 callgsubr
            311 vlineto
            65 51 44 65 53 41 -29 -51 22 vhcurveto
            60 46 rlineto
            57 -31 -56 42 -83 46 callsubr
            endchar
          </CharString>
          <CharString index="125">
            hhcurveto
            -70 -52 39 63 339 callsubr
            hvcurveto
            67 -342 -67 141 vlineto
            -49 -25 -28 -44 -57 vvcurveto
            -105 84 -57 110 return
          </CharString>
          <CharString index="126">
            -122 94 -69 101 184 callgsubr
            return
          </CharString>
          <CharString index="127">
            rmoveto
            -10 26 19 -5 27 hhcurveto
            82 48 52 88 hvcurveto
            562 -78 -560 vlineto
            -53 -22 -20 -34 -21 -23 6 10 -24 vhcurveto
            return
          </CharString>
          <CharString index="128">
            292 125 rmoveto
            345 callgsubr
            -669 28 callsubr
            -158 21 100 -84 120 hhcurveto
            7 67 rmoveto
            -80 -59 54 72 -16 hvcurveto
            78 -104 callgsubr
            -241 hlineto
            204 callgsubr
            vhcurveto
            return
          </CharString>
          <CharString index="129">
            32 33 -4 -6 37 hvcurveto
            183 146 67 -600 -67 375 -109 vlineto
            2 -15 -16 1 -14 hhcurveto
            -156 -1 -98 -99 -125 vvcurveto
            -136 107 -87 139 vhcurveto
            return
          </CharString>
          <CharString index="130">
            hhcurveto
            -62 -56 -16 -19 -32 hvcurveto
            -73 vlineto
            19 35 55 21 59 hhcurveto
            return
          </CharString>
          <CharString index="131">
            -53 callgsubr
            -31 callgsubr
            return
          </CharString>
          <CharString index="132">
            450 rmoveto
            28 -32 -42 13 -43 186 callsubr
            31 40 57 75 74 callgsubr
            89 4 27 50 95 vvcurveto
            117 335 111 callgsubr
            return
          </CharString>
          <CharString index="133">
            58 -45 -67 31 -75 23 callsubr
            77 -2 57 -43 31 -59 -295 -184 rcurveline
            277 callsubr
            return
          </CharString>
          <CharString index="134">
            rmoveto
            248 callsubr
            30 23 24 30 hvcurveto
            -161 vmoveto
            59 47 48 58 59 -47 48 -59 -59 -47 -48 -59 -58 47 -48 59 hvcurveto
            return
          </CharString>
          <CharString index="135">
            -67 205 vlineto
            -96 callgsubr
            return
          </CharString>
          <CharString index="136">
            -82 callsubr
            -82 -86 -46 -170 -36 vhcurveto
            return
          </CharString>
          <CharString index="137">
            -62 callgsubr
            3 callsubr
            endchar
          </CharString>
          <CharString index="138">
            vstem
            318 465 rmoveto
            5 -17 -24 122 callsubr
            -115 83 -70 101 -4 hvcurveto
            -171 -158 rlineto
            109 hlineto
            308 285 -44 58 rlineto
            -77 -54 -54 -46 -75 hhcurveto
            -69 -55 49 79 -79 callsubr
            hvcurveto
            64 179 rmoveto
            67 -404 -67 vlineto
            return
          </CharString>
          <CharString index="139">
            rmoveto
            -75 -33 -33 -61 -65 -24 43 65 vhcurveto
            221 183 vlineto
            434 67 rmoveto
            -797 -67 102 -218 hlineto
            -121 55 -57 111 113 60 63 114 vhcurveto
            219 162 -284 vlineto
            -357 -312 rlineto
            114 hlineto
            243 215 rlineto
            437 callgsubr
          </CharString>
          <CharString index="140">
            -84 -99 vlineto
            -89 -71 -43 -89 -87 67 -40 117 -5 hvcurveto
            return
          </CharString>
          <CharString index="141">
            hhcurveto
            56 callsubr
            return
          </CharString>
          <CharString index="142">
            vvcurveto
            37 20 32 47 46 20 -34 -42 return
          </CharString>
          <CharString index="143">
            hlineto
            8 callsubr
            return
          </CharString>
          <CharString index="144">
            408 575 rmoveto
            67 -430 28 callsubr
            -160 22 99 -82 123 hhcurveto
            117 67 67 59 29 hvcurveto
            -52 42 rlineto
            -64 -24 -63 -37 -68 hhcurveto
            -81 -59 53 73 -17 69 callsubr
            return
          </CharString>
          <CharString index="145">
            -76 -5 66 -40 -21 234 63 147 71 return
          </CharString>
          <CharString index="146">
            12 10 1 1 8 hvcurveto
            -38 callgsubr
          </CharString>
          <CharString index="147">
            rmoveto
            -341 -70 247 hlineto
            -257 -375 rlineto
            -62 365 71 -274 vlineto
            260 378 rlineto
            return
          </CharString>
          <CharString index="148">
            -6 33 -34 -46 vvcurveto
            -53 -37 -32 -56 -63 return
          </CharString>
          <CharString index="149">
            vstem
            148 575 rmoveto
            183 -221 hlineto
            -75 -33 -33 -61 -65 -24 43 65 vhcurveto
            261 221 rmoveto
            116 67 -557 -67 102 -218 hlineto
            -121 55 -57 111 113 60 63 114 vhcurveto
            182 -47 rmoveto
            -377 -330 rlineto
            114 hlineto
            299 263 rlineto
            return
          </CharString>
          <CharString index="150">
            vstem
            439 -41 callsubr
            -461 -67 461 hlineto
            56 -273 rmoveto
            -70 -40 -74 -68 -89 hhcurveto
            232 callgsubr
            159 hvcurveto
            69 callgsubr
            -98 75 -58 95 -5 vhcurveto
            -171 -146 rlineto
            112 hlineto
            327 276 rlineto
            return
          </CharString>
          <CharString index="151">
            78 -57 callsubr
          </CharString>
          <CharString index="152">
            rmoveto
            -140 165 rlineto
            200 callsubr
            return
          </CharString>
          <CharString index="153">
            hhcurveto
            -51 -42 -17 -30 -29 hvcurveto
            return
          </CharString>
          <CharString index="154">
            70 callsubr
            -168 18 118 -66 129 hhcurveto
            return
          </CharString>
          <CharString index="155">
            585 rmoveto
            250 69 -328 -362 hlineto
            18 40 55 17 56 hhcurveto
            80 60 -41 -79 -95 -59 -46 -109 -53 -63 15 23 -39 hvcurveto
            -78 vlineto
            -24 49 64 -10 55 hhcurveto
            148 89 84 128 119 -84 76 -133 -25 -26 -4 -6 -27 hvcurveto
            endchar
          </CharString>
          <CharString index="156">
            82 20 49 57 69 vvcurveto
            105 callsubr
            return
          </CharString>
          <CharString index="157">
            vstem
            301 -41 callsubr
            -323 -67 323 hlineto
            135 -187 rmoveto
            62 -326 40 callgsubr
            216 hlineto
            -299 -310 rlineto
            96 hlineto
            293 305 rlineto
            return
          </CharString>
          <CharString index="158">
            46 callsubr
            166 callgsubr
            return
          </CharString>
          <CharString index="159">
            hhcurveto
            -20 callsubr
            return
          </CharString>
          <CharString index="160">
            -51 callgsubr
            61 47 -29 -51 67 hvcurveto
            return
          </CharString>
          <CharString index="161">
            vlineto
            176 callsubr
          </CharString>
          <CharString index="162">
            21 -21 72 67 121 68 8 70 167 68 -66 67 return
          </CharString>
          <CharString index="163">
            -20 callsubr
            143 return
          </CharString>
          <CharString index="164">
            34 48 51 23 69 hhcurveto
            64 52 -29 -34 37 hvcurveto
            -176 -58 rlineto
            -44 -14 -23 -26 -38 vvcurveto
            -38 29 -45 33 -28 vhcurveto
            58 20 rlineto
            -17 21 -16 28 24 vvcurveto
            20 10 14 23 9 vhcurveto
            149 53 rlineto
            -257 -95 callgsubr
          </CharString>
          <CharString index="165">
            70 -49 53 -92 -34 -34 -8 -13 -26 return
          </CharString>
          <CharString index="166">
            146 -146 264 -243 -21 return
          </CharString>
          <CharString index="167">
            vstem
            37 222 rmoveto
            361 callsubr
            165 67 -423 321 callgsubr
            418 41 rmoveto
            -409 -352 317 callgsubr
            337 286 rlineto
            return
          </CharString>
          <CharString index="168">
            -73 -63 17 64 57 50 43 90 hvcurveto
            1 67 -315 -67 157 328 callgsubr
            -31 72 -7 vhcurveto
            return
          </CharString>
          <CharString index="169">
            -302 21 -21 575 67 return
          </CharString>
          <CharString index="170">
            48 84 hvcurveto
            234 return
          </CharString>
          <CharString index="171">
            279 -9 -86 callsubr
            return
          </CharString>
          <CharString index="172">
            rmoveto
            184 209 -184 vlineto
            -428 251 rmoveto
            -67 140 21 callgsubr
            69 135 209 -49 hlineto
            -344 -313 rlineto
            112 hlineto
            232 212 rlineto
            return
          </CharString>
          <CharString index="173">
            -80 callgsubr
            44 48 84 hvcurveto
            234 174 -282 vlineto
            -364 -313 317 callgsubr
            254 214 rlineto
            -194 77 -57 callsubr
          </CharString>
          <CharString index="174">
            -73 -64 19 64 57 50 43 91 hvcurveto
            67 -317 -67 159 414 callsubr
            -71 51 -36 72 -8 vhcurveto
            return
          </CharString>
          <CharString index="175">
            vvcurveto
            -106 99 -62 132 161 119 106 146 return
          </CharString>
          <CharString index="176">
            hvcurveto
            78 24 70 -101 callsubr
            return
          </CharString>
          <CharString index="177">
            -37 callsubr
            -82 -86 -46 -170 -36 vhcurveto
            return
          </CharString>
          <CharString index="178">
            rmoveto
            -28 -21 -21 -28 -28 21 -20 28 28 22 20 28 28 -22 21 -28 hvcurveto
            endchar
          </CharString>
          <CharString index="179">
            rmoveto
            -30 -22 -23 -30 -30 22 -22 30 30 24 22 30 30 -24 23 -30 hvcurveto
            -529 243 rmoveto
            -67 343 vlineto
            return
          </CharString>
          <CharString index="180">
            139 callsubr
            272 261 callgsubr
            51 84 return
          </CharString>
          <CharString index="181">
            79 callsubr
            47 156 hstem
            43 81 272 79 vstem
            return
          </CharString>
          <CharString index="182">
            127 callsubr
            -55 49 79 return
          </CharString>
          <CharString index="183">
            -67 90 -200 hlineto
            -141 66 -58 114 return
          </CharString>
          <CharString index="184">
            -9 hlineto
            7 4 8 3 9 2 rrcurveto
            return
          </CharString>
          <CharString index="185">
            80 21 -21 177 69 363 65 return
          </CharString>
          <CharString index="186">
            -46 -5 70 155 66 158 69 return
          </CharString>
          <CharString index="187">
            -54 callsubr
            162 -575 -95 callgsubr
          </CharString>
          <CharString index="188">
            vvcurveto
            -62 callgsubr
            299 callgsubr
            hvcurveto
            return
          </CharString>
          <CharString index="189">
            -31 callgsubr
            hvcurveto
            -49 callgsubr
            return
          </CharString>
          <CharString index="190">
            424 callgsubr
            -22 hhcurveto
            -117 222 callgsubr
            -124 98 -67 112 return
          </CharString>
          <CharString index="191">
            -109 -17 vhcurveto
            return
          </CharString>
          <CharString index="192">
            11 10 1 1 10 hvcurveto
            -89 -157 vlineto
            -61 -26 3 callgsubr
            -35 12 -24 hvcurveto
            66 hlineto
            -8 24 -5 26 22 vvcurveto
            27 8 12 24 vhcurveto
            131 -145 76 314 hlineto
            81 30 55 62 83 vvcurveto
            return
          </CharString>
          <CharString index="193">
            266 64 rmoveto
            -80 -61 74 110 131 66 64 80 57 87 -43 -143 -147 -77 -46 -72 hvcurveto
            return
          </CharString>
          <CharString index="194">
            -7 -16 -14 -3 -15 hhcurveto
            -41 -29 28 43 44 32 39 57 return
          </CharString>
          <CharString index="195">
            -74 78 72 vlineto
            return
          </CharString>
          <CharString index="196">
            77 -51 64 -93 -89 -55 -61 -66 -34 8 356 callsubr
            20 32 47 47 20 -34 -42 -82 -86 -46 -170 -36 vhcurveto
            15 -148 94 -72 107 -12 rrcurveto
            return
          </CharString>
          <CharString index="197">
            -76 -44 rlineto
            -38 -24 -18 -23 -31 vvcurveto
            -40 33 -41 43 -28 vhcurveto
            51 32 rlineto
            -21 19 -20 25 25 vvcurveto
            17 10 12 13 9 vhcurveto
            174 118 10 7 8 7 7 9 rlinecurve
            -133 78 vlineto
            return
          </CharString>
          <CharString index="198">
            -53 callgsubr
            12 11 436 callgsubr
            -7 hhcurveto
            -98 -45 65 95 return
          </CharString>
          <CharString index="199">
            rmoveto
            -194 -326 385 callsubr
            -85 -47 32 54 57 57 35 75 vhcurveto
            59 67 -51 hlineto
            return
          </CharString>
          <CharString index="200">
            -70 -14 -46 -41 -71 vvcurveto
            -107 97 -49 98 6 vhcurveto
            -160 -141 rlineto
            return
          </CharString>
          <CharString index="201">
            115 vlineto
            endchar
          </CharString>
          <CharString index="202">
            -141 67 -58 113 vhcurveto
            -36 callsubr
          </CharString>
          <CharString index="203">
            -26 49 71 -17 75 hhcurveto
            25 24 2 4 22 hvcurveto
            -90 -157 vlineto
            -63 callgsubr
            -35 13 -24 hvcurveto
            65 hlineto
            -7 24 -5 26 22 vvcurveto
            27 7 12 25 vhcurveto
            130 -144 return
          </CharString>
          <CharString index="204">
            481 0 callgsubr
            return
          </CharString>
          <CharString index="205">
            94 1 60 42 29 46 rrcurveto
            -188 -95 callgsubr
          </CharString>
          <CharString index="206">
            77 hlineto
            8 17 3 21 18 vvcurveto
            67 -53 67 -117 return
          </CharString>
          <CharString index="207">
            -114 -67 116 -575 111 callsubr
            67 return
          </CharString>
          <CharString index="208">
            -72 -9 -55 -44 -77 vvcurveto
            -90 79 -70 131 return
          </CharString>
          <CharString index="209">
            78 188 78 return
          </CharString>
          <CharString index="210">
            -55 -23 -39 -45 -71 vvcurveto
            -115 106 -58 124 66 68 14 20 40 vhcurveto
            72 vlineto
            -21 -38 -72 -18 -61 hhcurveto
            -90 -62 33 76 71 64 36 83 hvcurveto
            160 21 hlineto
            16 2 rlineto
            return
          </CharString>
          <CharString index="211">
            -67 146 123 callsubr
            -72 57 439 callgsubr
            return
          </CharString>
          <CharString index="212">
            58 callsubr
            vhcurveto
            -65 vlineto
            12 20 32 11 return
          </CharString>
          <CharString index="213">
            1 -8 -8 0 -8 hhcurveto
            return
          </CharString>
          <CharString index="214">
            12 10 1 1 return
          </CharString>
          <CharString index="215">
            -433 364 rmoveto
            -88 71 -71 87 87 72 71 88 86 -72 72 -87 -87 -71 -72 -86 vhcurveto
            69 hmoveto
            49 40 40 49 50 40 -40 -49 -50 -40 -40 -50 -49 -40 40 50 vhcurveto
            return
          </CharString>
          <CharString index="216">
            334 callsubr
            -88 68 -57 98 -18 vhcurveto
            -110 -144 24 callgsubr
            401 callgsubr
            rlineto
            115 31 78 92 118 vvcurveto
            return
          </CharString>
          <CharString index="217">
            rmoveto
            54 31 -44 -44 -49 -40 -43 -41 -25 hvcurveto
            -66 38 -25 40 42 vvcurveto
            46 34 39 53 vhcurveto
            return
          </CharString>
          <CharString index="218">
            78 575 115 return
          </CharString>
          <CharString index="219">
            -1 -8 72 379 72 hstem
            73 78 291 82 vstem
            296 64 rmoveto
            -59 -86 45 144 147 81 43 69 80 61 -72 -113 -129 -65 -65 -81 hvcurveto
            -145 return
          </CharString>
          <CharString index="220">
            vvcurveto
            -90 78 -70 130 93 68 45 48 31 vhcurveto
            -157 160 callsubr
          </CharString>
          <CharString index="221">
            -81 callgsubr
            67 hlineto
            endchar
          </CharString>
          <CharString index="222">
            399 138 callsubr
            return
          </CharString>
          <CharString index="223">
            3 71 6 2 hhcurveto
            54 -1 31 -27 -46 vvcurveto
            -57 -48 -31 -75 -66 -74 24 31 -50 vhcurveto
            return
          </CharString>
          <CharString index="224">
            330 rmoveto
            -91 -87 -80 -114 -60 -61 155 callsubr
            vhcurveto
            59 68 -48 hlineto
            return
          </CharString>
          <CharString index="225">
            hvcurveto
            69 vlineto
            6 -26 -27 4 -30 hhcurveto
            -127 -92 -86 -122 return
          </CharString>
          <CharString index="226">
            314 callgsubr
            rlineto
            168 callsubr
            return
          </CharString>
          <CharString index="227">
            21 -21 443 64 136 71 hstem
            117 79 return
          </CharString>
          <CharString index="228">
            60 50 36 81 vhcurveto
            59 67 -50 hlineto
            return
          </CharString>
          <CharString index="229">
            3 -23 hhcurveto
            -116 222 callgsubr
            return
          </CharString>
          <CharString index="230">
            hlineto
            -28 -24 -14 -31 -36 vvcurveto
            return
          </CharString>
          <CharString index="231">
            194 67 rmoveto
            return
          </CharString>
          <CharString index="232">
            rmoveto
            -58 47 -48 59 59 47 48 58 59 -47 48 -59 -59 -47 -48 -59 vhcurveto
            53 1 rmoveto
            30 23 24 30 248 callsubr
            vhcurveto
            return
          </CharString>
          <CharString index="233">
            57 52 19 33 26 hvcurveto
            -133 78 vlineto
            return
          </CharString>
          <CharString index="234">
            141 callsubr
            -69 return
          </CharString>
          <CharString index="235">
            34 12 -21 -44 hvcurveto
            -126 vlineto
            return
          </CharString>
          <CharString index="236">
            -43 callgsubr
            175 -575 191 callgsubr
          </CharString>
          <CharString index="237">
            257 59 rmoveto
            -354 vlineto
            -77 18 -61 20 -49 20 rrcurveto
            50 36 43 53 62 vvcurveto
            return
          </CharString>
          <CharString index="238">
            -230 256 rlineto
            return
          </CharString>
          <CharString index="239">
            hhcurveto
            -98 -46 65 95 return
          </CharString>
          <CharString index="240">
            hhcurveto
            -85 274 callgsubr
            hvcurveto
            59 67 -50 hlineto
            return
          </CharString>
          <CharString index="241">
            -25 callgsubr
            endchar
          </CharString>
          <CharString index="242">
            -36 -12 -35 -22 -28 vhcurveto
            return
          </CharString>
          <CharString index="243">
            -65 callgsubr
            hintmask 11110110
            20 callgsubr
            return
          </CharString>
          <CharString index="244">
            440 212 callgsubr
            113 67 -575 -67 385 -92 -176 vlineto
            return
          </CharString>
          <CharString index="245">
            rmoveto
            -39 callsubr
            194 67 rmoveto
            return
          </CharString>
          <CharString index="246">
            59 callsubr
            83 63 return
          </CharString>
          <CharString index="247">
            -70 -14 -47 -41 -71 vvcurveto
            -94 79 -59 115 return
          </CharString>
          <CharString index="248">
            -262 hlineto
            136 callgsubr
            return
          </CharString>
          <CharString index="249">
            298 callgsubr
            221 79 return
          </CharString>
          <CharString index="250">
            75 157 78 112 79 return
          </CharString>
          <CharString index="251">
            -162 hlineto
            -60 -27 -30 -44 -41 16 -38 13 -23 hvcurveto
            65 hlineto
            -7 23 -5 29 22 vvcurveto
            26 7 12 25 vhcurveto
            135 -157 76 358 hlineto
            return
          </CharString>
          <CharString index="252">
            193 67 rmoveto
            return
          </CharString>
          <CharString index="253">
            -69 -50 73 -98 hhcurveto
            -57 -53 -34 -59 -43 hvcurveto
            51 -45 rlineto
            49 34 37 19 43 hhcurveto
            hintmask 10101000
            60 65 -73 86 hhcurveto
            64 42 35 53 34 hvcurveto
            return
          </CharString>
          <CharString index="254">
            159 callgsubr
            hlineto
            return
          </CharString>
          <CharString index="255">
            74 55 48 69 22 19 -3 -6 18 vhcurveto
            69 vlineto
            5 -17 -24 3 -23 hhcurveto
            return
          </CharString>
          <CharString index="256">
            rmoveto
            -31 -23 -24 -31 127 callgsubr
            31 -24 24 -31 hvcurveto
            return
          </CharString>
          <CharString index="257">
            -54 -63 -97 hvcurveto
            -47 -87 -64 87 307 callgsubr
            return
          </CharString>
          <CharString index="258">
            -67 228 -106 vlineto
            -66 -6 -29 -69 vhcurveto
            -66 -65 hlineto
            return
          </CharString>
          <CharString index="259">
            65 176 155 callgsubr
            return
          </CharString>
          <CharString index="260">
            -144 -1 -103 -89 -130 vvcurveto
            return
          </CharString>
          <CharString index="261">
            79 180 78 -23 80 return
          </CharString>
          <CharString index="262">
            25 62 60 47 33 74 return
          </CharString>
          <CharString index="263">
            34 24 24 34 56 vvcurveto
            return
          </CharString>
          <CharString index="264">
            103 60 53 117 return
          </CharString>
          <CharString index="265">
            1 4 30 6 24 hhcurveto
            52 37 -19 -37 29 hvcurveto
            92 -118 -62 55 rlineto
            48 -55 -39 23 -58 hhcurveto
            -24 -27 -7 -1 -3 hvcurveto
            -70 vlineto
            return
          </CharString>
          <CharString index="266">
            78 274 hlineto
            -53 34 53 -32 68 hhcurveto
            131 87 112 154 140 -77 117 -139 -75 -50 -34 -51 -32 hvcurveto
            endchar
          </CharString>
          <CharString index="267">
            78 -52 callsubr
          </CharString>
          <CharString index="268">
            -108 -65 rlineto
            -41 -23 -17 -23 -32 vvcurveto
            -44 37 -39 40 -27 vhcurveto
            50 32 rlineto
            -19 20 -22 24 28 vvcurveto
            12 6 13 14 9 vhcurveto
            return
          </CharString>
          <CharString index="269">
            62 52 45 57 34 52 -9 -62 20 vhcurveto
            -51 -62 hlineto
            273 callgsubr
            -184 274 rlineto
            -5 33 53 -4 84 hhcurveto
            return
          </CharString>
          <CharString index="270">
            -82 -157 vlineto
            -60 -27 -30 -44 -41 16 -36 13 -23 hvcurveto
            65 hlineto
            -7 23 -5 27 22 vvcurveto
            26 7 12 25 vhcurveto
            130 -144 return
          </CharString>
          <CharString index="271">
            -27 14 0 vhcurveto
            -67 vlineto
            -7 16 23 -6 30 hhcurveto
            75 38 42 78 hvcurveto
            return
          </CharString>
          <CharString index="272">
            7 callgsubr
            endchar
          </CharString>
          <CharString index="273">
            -19 -192 73 132 70 360 71 return
          </CharString>
          <CharString index="274">
            -71 -55 16 63 39 19 30 37 20 hvcurveto
            return
          </CharString>
          <CharString index="275">
            102 hlineto
            243 255 rlineto
            -255 79 return
          </CharString>
          <CharString index="276">
            78 222 423 callsubr
            return
          </CharString>
          <CharString index="277">
            259 callgsubr
            hstem
            return
          </CharString>
          <CharString index="278">
            79 170 79 vstem
            366 507 rmoveto
            -170 46 hlineto
            66 33 24 48 38 33 -9 -13 28 vhcurveto
            -6 -20 -4 -22 -25 vvcurveto
            return
          </CharString>
          <CharString index="279">
            -10 17 -7 20 20 vvcurveto
            47 29 30 45 25 22 -7 -7 16 vhcurveto
            70 vlineto
            9 -16 -23 5 -26 hhcurveto
            -65 -47 -44 -57 -10 hvcurveto
            return
          </CharString>
          <CharString index="280">
            -97 -61 rlineto
            -32 -20 -13 -24 -25 vvcurveto
            -47 48 -42 38 -22 vhcurveto
            52 31 rlineto
            -25 21 -24 29 24 vvcurveto
            16 9 13 16 11 vhcurveto
            return
          </CharString>
          <CharString index="281">
            -58 -33 rlineto
            -40 -23 -16 -27 -28 vvcurveto
            -41 36 -42 41 -27 vhcurveto
            50 30 rlineto
            -20 19 -21 27 26 vvcurveto
            15 5 11 14 10 vhcurveto
            return
          </CharString>
          <CharString index="282">
            207 callgsubr
            316 callsubr
            45 return
          </CharString>
          <CharString index="283">
            273 callgsubr
            -184 274 rlineto
            -5 33 53 -4 84 hhcurveto
            168 -265 29 callgsubr
          </CharString>
          <CharString index="284">
            hmoveto
            81 674 -81 hlineto
            return
          </CharString>
          <CharString index="285">
            354 callsubr
            -64 78 return
          </CharString>
          <CharString index="286">
            -30 callsubr
            -118 90 return
          </CharString>
          <CharString index="287">
            -81 callgsubr
            67 -194 -267 vlineto
            -134 -93 -63 -93 -84 -58 38 77 callgsubr
            return
          </CharString>
          <CharString index="288">
            -111 80 -90 127 57 52 19 33 26 vhcurveto
            -133 78 vlineto
            return
          </CharString>
          <CharString index="289">
            353 callsubr
            74 67 hstemhm
            73 76 -66 80 175 79 -34 78 return
          </CharString>
          <CharString index="290">
            78 114 callsubr
          </CharString>
          <CharString index="291">
            rrcurveto
            -238 79 return
          </CharString>
          <CharString index="292">
            rlineto
            -33 -21 -12 -24 -24 vvcurveto
            -50 53 -42 35 -18 vhcurveto
            51 34 rlineto
            -23 19 -29 25 28 vvcurveto
            14 6 10 13 9 vhcurveto
            return
          </CharString>
          <CharString index="293">
            hhcurveto
            -39 callgsubr
            224 callsubr
            return
          </CharString>
          <CharString index="294">
            rlineto
            -28 -24 -12 -25 -23 vvcurveto
            -43 39 -39 49 -22 vhcurveto
            49 31 rlineto
            -28 23 -25 25 25 vvcurveto
            13 7 12 15 15 vhcurveto
            return
          </CharString>
          <CharString index="295">
            -47 -26 -25 -45 -52 vvcurveto
            -88 72 -59 96 62 54 28 42 30 vhcurveto
            -105 78 467 -75 vlineto
            -68 -2 -50 -50 -80 hhcurveto
            return
          </CharString>
          <CharString index="296">
            -67 vvcurveto
            -135 110 -95 165 34 38 4 10 43 vhcurveto
            65 vlineto
            -9 -30 -47 -6 -32 hhcurveto
            -136 -67 71 93 return
          </CharString>
          <CharString index="297">
            rmoveto
            601 -81 -674 368 73 vlineto
            endchar
          </CharString>
          <CharString index="298">
            -88 79 507 vlineto
            endchar
          </CharString>
          <CharString index="299">
            -32 -21 -14 -21 -26 vvcurveto
            -48 51 -46 37 -19 vhcurveto
            51 33 rlineto
            -23 18 -27 29 28 vvcurveto
            16 10 12 16 11 vhcurveto
            return
          </CharString>
          <CharString index="300">
            -140 -145 rcurveline
            238 callgsubr
            return
          </CharString>
          <CharString index="301">
            87 callsubr
            74 return
          </CharString>
          <CharString index="302">
            -71 -226 77 116 hlineto
            -32 35 51 -19 58 hhcurveto
            93 78 return
          </CharString>
          <CharString index="303">
            -305 vlineto
            -60 callgsubr
            return
          </CharString>
          <CharString index="304">
            306 353 callsubr
            hstem
            57 81 190 return
          </CharString>
          <CharString index="305">
            33 38 26 295 callsubr
            return
          </CharString>
          <CharString index="306">
            vhcurveto
            25 -56 rlineto
            69 137 return
          </CharString>
          <CharString index="307">
            -80 hlineto
            123 -165 rlineto
            return
          </CharString>
          <CharString index="308">
            209 399 callsubr
            return
          </CharString>
          <CharString index="309">
            281 callgsubr
            76 return
          </CharString>
          <CharString index="310">
            67 hstemhm
            28 81 return
          </CharString>
          <CharString index="311">
            -60 callgsubr
            -2 callgsubr
            return
          </CharString>
          <CharString index="312">
            -41 callsubr
            -193 -344 hlineto
            286 callsubr
            return
          </CharString>
          <CharString index="313">
            93 -4 37 -20 -50 vvcurveto
            -57 -48 -31 -75 -66 -74 24 31 -49 vhcurveto
            -77 vlineto
            31 -17 39 -13 43 -8 rrcurveto
            return
          </CharString>
          <CharString index="314">
            37 22 23 35 1 47 rrcurveto
            88 -60 41 -90 2 vhcurveto
            -92 -7 rlineto
            -49 -35 16 37 43 40 14 48 hvcurveto
            return
          </CharString>
          <CharString index="315">
            vvcurveto
            47 27 30 46 24 24 -7 -8 16 vhcurveto
            72 vlineto
            7 -15 -24 5 -26 hhcurveto
            -69 -49 -45 -58 -8 hvcurveto
            return
          </CharString>
          <CharString index="316">
            106 callsubr
            153 callsubr
            return
          </CharString>
          <CharString index="317">
            vlineto
            15 396 callgsubr
            -53 -46 84 callsubr
            return
          </CharString>
          <CharString index="318">
            rmoveto
            304 callsubr
            -310 hlineto
            return
          </CharString>
          <CharString index="319">
            234 -193 hlineto
            return
          </CharString>
          <CharString index="320">
            79 276 78 return
          </CharString>
          <CharString index="321">
            -21 98 64 -49 67 -1 65 158 68 -55 65 -60 64 91 324 callgsubr
            return
          </CharString>
          <CharString index="322">
            59 callsubr
            418 261 callgsubr
            56 84 -50 86 208 78 -64 78 return
          </CharString>
          <CharString index="323">
            -118 vlineto
            106 callsubr
            -105 -1 -84 -48 -37 -76 rrcurveto
            328 242 rmoveto
            111 67 return
          </CharString>
          <CharString index="324">
            vlineto
            69 38 32 55 54 42 -33 -68 vhcurveto
            return
          </CharString>
          <CharString index="325">
            -98 -69 -46 -83 -92 80 -23 101 -6 hvcurveto
            return
          </CharString>
          <CharString index="326">
            297 callsubr
            72 -21 return
          </CharString>
          <CharString index="327">
            67 84 67 hstemhm
            return
          </CharString>
          <CharString index="328">
            89 43 38 61 return
          </CharString>
          <CharString index="329">
            vvcurveto
            -61 42 -49 81 29 28 6 14 22 vhcurveto
            60 vlineto
            -12 -17 -27 -10 -25 hhcurveto
            -39 -25 20 39 return
          </CharString>
          <CharString index="330">
            -48 -28 -30 -49 -58 vvcurveto
            -116 94 -62 101 79 53 35 45 28 vhcurveto
            -167 77 454 vlineto
            return
          </CharString>
          <CharString index="331">
            61 vlineto
            -8 -16 -15 -2 -14 hhcurveto
            -40 -30 28 44 44 return
          </CharString>
          <CharString index="332">
            -75 -174 72 662 156 hstem
            8 468 vstem
            return
          </CharString>
          <CharString index="333">
            hhcurveto
            -54 -44 -13 -17 -34 hvcurveto
            1 6 0 5 6 vvcurveto
            return
          </CharString>
          <CharString index="334">
            424 124 callgsubr
            return
          </CharString>
          <CharString index="335">
            370 21 -21 550 114 return
          </CharString>
          <CharString index="336">
            34 -8 76 539 76 -36 -20 return
          </CharString>
          <CharString index="337">
            hlineto
            -8 callgsubr
            return
          </CharString>
          <CharString index="338">
            -67 91 -247 -167 hlineto
            return
          </CharString>
          <CharString index="339">
            223 371 callgsubr
            hstem
            return
          </CharString>
          <CharString index="340">
            1 1 -5 vhcurveto
            -67 vlineto
            -1 return
          </CharString>
          <CharString index="341">
            -137 -69 -49 -98 return
          </CharString>
          <CharString index="342">
            156 -51 51 hstemhm
            return
          </CharString>
          <CharString index="343">
            79 54 44 69 6 9 372 callgsubr
            66 vlineto
            2 -6 -9 1 -8 hhcurveto
            -109 -90 -72 return
          </CharString>
          <CharString index="344">
            305 callsubr
            68 -78 98 -27 vhcurveto
            275 callgsubr
            return
          </CharString>
          <CharString index="345">
            -61 -33 -35 -88 vhcurveto
            -67 -65 hlineto
            211 -279 -4 callgsubr
            -213 279 rlineto
            10 hlineto
            return
          </CharString>
          <CharString index="346">
            270 callsubr
            vhcurveto
            -163 -95 callgsubr
          </CharString>
          <CharString index="347">
            -7 callgsubr
            endchar
          </CharString>
          <CharString index="348">
            64 84 65 137 59 110 220 callsubr
            64 79 -56 82 162 77 -19 80 return
          </CharString>
          <CharString index="349">
            hhcurveto
            73 57 26 43 32 hvcurveto
            -194 78 vlineto
            hintmask 11110111
            135 callgsubr
          </CharString>
          <CharString index="350">
            -67 291 -116 vlineto
            -118 -7 -103 -66 -114 vvcurveto
            -118 107 -72 139 vhcurveto
            return
          </CharString>
          <CharString index="351">
            76 callgsubr
            -74 callsubr
            return
          </CharString>
          <CharString index="352">
            rmoveto
            257 341 rlineto
            -100 hlineto
            -257 -341 266 -333 rlineto
            105 hlineto
            endchar
          </CharString>
          <CharString index="353">
            -39 -20 -23 -36 -45 vvcurveto
            -34 10 -26 18 -19 vhcurveto
            return
          </CharString>
          <CharString index="354">
            -67 98 -204 vlineto
            419 callgsubr
            return
          </CharString>
          <CharString index="355">
            30 24 -24 -30 -29 -24 -25 -30 -30 -23 25 29 return
          </CharString>
          <CharString index="356">
            72 43 53 72 61 46 -35 -29 25 return
          </CharString>
          <CharString index="357">
            102 -8 78 237 71 229 79 return
          </CharString>
          <CharString index="358">
            -13 34 66 175 65 235 67 return
          </CharString>
          <CharString index="359">
            67 188 386 callgsubr
            return
          </CharString>
          <CharString index="360">
            1 3 32 8 23 hhcurveto
            return
          </CharString>
          <CharString index="361">
            284 66 80 67 hstem
            return
          </CharString>
          <CharString index="362">
            68 168 67 hstemhm
            return
          </CharString>
          <CharString index="363">
            112 callgsubr
            68 return
          </CharString>
          <CharString index="364">
            -156 rlineto
            69 hlineto
            return
          </CharString>
          <CharString index="365">
            70 78 183 78 return
          </CharString>
          <CharString index="366">
            -215 211 return
          </CharString>
          <CharString index="367">
            21 -21 63 66 return
          </CharString>
          <CharString index="368">
            64 87 65 248 64 116 67 hstemhm
            48 80 -47 81 107 77 -21 76 56 80 return
          </CharString>
          <CharString index="369">
            82 -60 69 -107 -101 -60 -75 -74 -61 30 -54 73 -48 vhcurveto
            -189 -114 62 -48 return
          </CharString>
          <CharString index="370">
            475 rmoveto
            151 93 rlineto
            -568 78 654 -74 vlineto
            -155 -94 rlineto
            endchar
          </CharString>
          <CharString index="371">
            406 callgsubr
            392 callsubr
            hintmask 10111100
            return
          </CharString>
          <CharString index="372">
            64 82 67 260 353 callsubr
            hstemhm
            39 81 -42 82 162 77 -69 79 return
          </CharString>
          <CharString index="373">
            rmoveto
            -87 hlineto
            147 -162 -147 -162 rlineto
            87 hlineto
            151 162 rlineto
            return
          </CharString>
          <CharString index="374">
            407 callgsubr
            44 40 8 14 36 vhcurveto
            -92 vlineto
            return
          </CharString>
          <CharString index="375">
            rmoveto
            -87 hlineto
            -150 -162 150 -162 rlineto
            87 hlineto
            -146 162 rlineto
            return
          </CharString>
          <CharString index="376">
            -48 -41 -7 -12 -34 hvcurveto
            -26 14 -26 29 37 vvcurveto
            37 25 8 31 vhcurveto
            endchar
          </CharString>
          <CharString index="377">
            -125 98 -81 112 81 64 36 46 34 return
          </CharString>
          <CharString index="378">
            59 -13 -48 35 -73 hhcurveto
            -106 -66 -87 -119 return
          </CharString>
          <CharString index="379">
            -137 vlineto
            229 callgsubr
            return
          </CharString>
          <CharString index="380">
            rmoveto
            -282 -56 282 hlineto
            return
          </CharString>
          <CharString index="381">
            hstem
            56 80 161 81 vstem
            return
          </CharString>
          <CharString index="382">
            -147 642 156 hstem
            return
          </CharString>
          <CharString index="383">
            hlineto
            -18 -29 -10 -35 -38 vvcurveto
            return
          </CharString>
          <CharString index="384">
            42 -58 276 172 rlineto
            return
          </CharString>
          <CharString index="385">
            hlineto
            -18 -29 -11 -36 -41 vvcurveto
            return
          </CharString>
          <CharString index="386">
            21 -21 265 68 return
          </CharString>
          <CharString index="387">
            92 73 67 123 return
          </CharString>
          <CharString index="388">
            21 -21 98 64 return
          </CharString>
          <CharString index="389">
            78 222 79 return
          </CharString>
          <CharString index="390">
            64 117 66 74 425 callgsubr
            -64 79 194 78 -51 78 -50 84 return
          </CharString>
          <CharString index="391">
            -39 callsubr
            443 hmoveto
            67 return
          </CharString>
          <CharString index="392">
            301 callsubr
            vhcurveto
            return
          </CharString>
          <CharString index="393">
            341 callsubr
            -83 -49 40 53 121 callsubr
            return
          </CharString>
          <CharString index="394">
            -98 -72 -41 -83 -78 61 -34 112 73 54 -10 -61 -51 -38 -31 -57 hvcurveto
            return
          </CharString>
          <CharString index="395">
            -60 -39 34 53 49 34 40 60 7 hvcurveto
            6 hlineto
            57 52 20 33 26 hvcurveto
            return
          </CharString>
          <CharString index="396">
            -575 183 callsubr
          </CharString>
          <CharString index="397">
            336 callgsubr
            hintmask 10111110
            return
          </CharString>
          <CharString index="398">
            12 16 -31 hvcurveto
            -72 vlineto
            -13 32 return
          </CharString>
          <CharString index="399">
            vlineto
            -63 callgsubr
            -39 return
          </CharString>
          <CharString index="400">
            -137 vlineto
            -60 -18 -34 -80 vhcurveto
            return
          </CharString>
          <CharString index="401">
            -13 -13 -1 -3 -11 hvcurveto
            return
          </CharString>
          <CharString index="402">
            hvcurveto
            -132 78 575 return
          </CharString>
          <CharString index="403">
            -125 100 -81 117 return
          </CharString>
          <CharString index="404">
            -243 192 return
          </CharString>
          <CharString index="405">
            67 hstemhm
            68 79 return
          </CharString>
          <CharString index="406">
            95 hlineto
            181 192 rlineto
            -147 79 308 vlineto
            426 callgsubr
            return
          </CharString>
          <CharString index="407">
            -97 callsubr
            75 vlineto
            return
          </CharString>
          <CharString index="408">
            442 rmoveto
            -10 17 -5 19 21 vvcurveto
            40 21 36 49 51 36 -32 -75 return
          </CharString>
          <CharString index="409">
            210 62 37 65 54 63 84 67 hstemhm
            138 84 -16 79 59 76 return
          </CharString>
          <CharString index="410">
            rlineto
            312 callsubr
          </CharString>
          <CharString index="411">
            116 -54 callgsubr
            116 67 return
          </CharString>
          <CharString index="412">
            -156 -1 -98 -99 -125 vvcurveto
            -108 return
          </CharString>
          <CharString index="413">
            67 hstemhm
            271 78 return
          </CharString>
          <CharString index="414">
            21 -21 176 64 return
          </CharString>
          <CharString index="415">
            66 -60 64 102 67 return
          </CharString>
          <CharString index="416">
            -53 -35 -42 -66 -66 -34 42 53 vhcurveto
            -78 hlineto
            -108 82 -49 96 return
          </CharString>
          <CharString index="417">
            -21 42 69 99 62 -16 67 -13 64 54 63 84 373 callgsubr
            return
          </CharString>
          <CharString index="418">
            -67 384 -74 -106 hlineto
            -100 -67 -46 -78 -91 84 -27 105 -5 hvcurveto
            return
          </CharString>
          <CharString index="419">
            70 137 196 -281 183 callsubr
          </CharString>
          <CharString index="420">
            575 113 67 vlineto
            endchar
          </CharString>
          <CharString index="421">
            78 129 78 return
          </CharString>
          <CharString index="422">
            1 -10 -10 1 return
          </CharString>
          <CharString index="423">
            65 51 45 65 return
          </CharString>
          <CharString index="424">
            -51 25 49 -25 73 hhcurveto
            113 60 63 114 hvcurveto
            225 return
          </CharString>
          <CharString index="425">
            -199 297 callsubr
            46 70 378 64 hstem
            103 79 vstem
            return
          </CharString>
          <CharString index="426">
            71 vlineto
            9 -18 -29 4 -27 hhcurveto
            -90 -49 -63 -84 hvcurveto
            -41 vlineto
            return
          </CharString>
          <CharString index="427">
            0 66 337 -34 callgsubr
            return
          </CharString>
          <CharString index="428">
            27 6 22 8 15 8 rrcurveto
            72 vlineto
            -19 -31 -60 -19 -55 hhcurveto
            return
          </CharString>
          <CharString index="429">
            hintmask 11010000
            420 callgsubr
            return
          </CharString>
          <CharString index="430">
            70 121 67 hstemhm
            63 79 99 83 return
          </CharString>
          <CharString index="431">
            365 callsubr
            -37 return
          </CharString>
          <CharString index="432">
            -120 hlineto
            -85 33 -53 53 -19 vhcurveto
            return
          </CharString>
          <CharString index="433">
            -20 21 415 callsubr
            return
          </CharString>
          <CharString index="434">
            155 callgsubr
            234 79 return
          </CharString>
          <CharString index="435">
            67 hstemhm
            73 79 -54 87 201 79 return
          </CharString>
          <CharString index="436">
            339 callsubr
            vhcurveto
            67 return
          </CharString>
          <CharString index="437">
            -169 -113 -69 -119 return
          </CharString>
          <CharString index="438">
            66 184 67 -63 67 hstemhm
            return
          </CharString>
          <CharString index="439">
            -110 hhcurveto
            -30 -32 -6 -7 return
          </CharString>
          <CharString index="440">
            -156 -6 68 381 69 return
          </CharString>
          <CharString index="441">
            -66 -7 -47 -48 -72 vvcurveto
            return
          </CharString>
          <CharString index="442">
            44 63 callsubr
            return
          </CharString>
          <CharString index="443">
            250 68 102 67 hstem
            return
          </CharString>
          <CharString index="444">
            rmoveto
            167 121 67 return
          </CharString>
          <CharString index="445">
            221 callgsubr
            vstem
            return
          </CharString>
          <CharString index="446">
            58 40 63 160 return
          </CharString>
          <CharString index="447">
            21 -21 108 67 return
          </CharString>
          <CharString index="448">
            -78 -69 -89 -119 return
          </CharString>
          <CharString index="449">
            76 81 331 81 return
          </CharString>
          <CharString index="450">
            78 194 78 return
          </CharString>
          <CharString index="451">
            68 123 67 return
          </CharString>
          <CharString index="452">
            -67 368 196 callsubr
            return
          </CharString>
          <CharString index="453">
            21 -21 375 callgsubr
            return
          </CharString>
          <CharString index="454">
            156 377 callsubr
            return
          </CharString>
          <CharString index="455">
            hhcurveto
            -84 -48 33 55 54 53 35 79 hvcurveto
            59 66 -50 hlineto
            return
          </CharString>
          <CharString index="456">
            76 36 -43 -65 -102 -92 -70 -118 -103 -76 38 69 hvcurveto
            return
          </CharString>
          <CharString index="457">
            99 callsubr
            vhcurveto
            return
          </CharString>
          <CharString index="458">
            0 68 23 64 110 68 51 68 -47 371 callsubr
            return
          </CharString>
          <CharString index="459">
            471 rmoveto
            62 hlineto
            120 224 rlineto
            -98 hlineto
            endchar
          </CharString>
          <CharString index="460">
            64 117 67 return
          </CharString>
          <CharString index="461">
            84 244 78 return
          </CharString>
          <CharString index="462">
            21 -21 81 64 return
          </CharString>
          <CharString index="463">
            -16 5 -14 vhcurveto
            77 hlineto
            -4 11 -9 13 32 vvcurveto
            37 return
          </CharString>
          <CharString index="464">
            -30 -44 -56 -19 -80 -64 -91 25 30 -49 hvcurveto
            -77 vlineto
            return
          </CharString>
          <CharString index="465">
            64 105 67 106 67 hstemhm
            65 394 callsubr
            return
          </CharString>
          <CharString index="466">
            242 -134 hlineto
            -60 -34 -37 -88 vhcurveto
            -67 -65 hlineto
            return
          </CharString>
          <CharString index="467">
            -69 -55 49 78 74 54 48 69 22 19 -2 -6 17 return
          </CharString>
          <CharString index="468">
            -7 17 26 -6 30 hhcurveto
            82 335 callsubr
            return
          </CharString>
          <CharString index="469">
            -7 69 -42 -21 242 69 46 69 179 69 hstemhm
            return
          </CharString>
          <CharString index="470">
            hhcurveto
            -46 -39 -13 -16 -31 hvcurveto
            1 5 0 5 6 vvcurveto
            return
          </CharString>
          <CharString index="471">
            37 -122 90 -107 132 -30 return
          </CharString>
          <CharString index="472">
            -8 callgsubr
            -43 -32 return
          </CharString>
          <CharString index="473">
            21 -21 170 64 return
          </CharString>
          <CharString index="474">
            79 507 -79 hlineto
            return
          </CharString>
          <CharString index="475">
            57 -57 159 hstemhm
            return
          </CharString>
          <CharString index="476">
            -282 -4 callgsubr
            return
          </CharString>
          <CharString index="477">
            -37 -32 -5 -10 -28 return
          </CharString>
          <CharString index="478">
            68 102 67 hstemhm
            return
          </CharString>
          <CharString index="479">
            228 -72 vlineto
            return
          </CharString>
          <CharString index="480">
            64 54 433 callsubr
            return
          </CharString>
          <CharString index="481">
            -188 171 -72 -171 -180 -69 180 return
          </CharString>
          <CharString index="482">
            17 hvcurveto
            280 348 rmoveto
            167 117 67 return
          </CharString>
          <CharString index="483">
            67 252 123 callgsubr
            return
          </CharString>
          <CharString index="484">
            hstem
            72.5 78.5 vstem
            return
          </CharString>
          <CharString index="485">
            hstem
            85 78 248 78 vstem
            577 -41 callsubr
            return
          </CharString>
          <CharString index="486">
            7 -20 -21 3 -23 52 callsubr
            return
          </CharString>
          <CharString index="487">
            -234 -189 76 337 77 335 77 hstemhm
            return
          </CharString>
          <CharString index="488">
            -259 254 rlineto
            556 hlineto
            -563 -64 rmoveto
            return
          </CharString>
          <CharString index="489">
            31 24 22 31 31 -24 24 -31 -31 -23 -24 -31 return
          </CharString>
          <CharString index="490">
            433 callgsubr
            endchar
          </CharString>
          <CharString index="491">
            -2 -3 -13 vhcurveto
            1 vlineto
            return
          </CharString>
          <CharString index="492">
            hlineto
            341 callsubr
            return
          </CharString>
          <CharString index="493">
            28 22 vvcurveto
            27 8 12 return
          </CharString>
          <CharString index="494">
            16 -19 14 -31 -39 vvcurveto
            return
          </CharString>
          <CharString index="495">
            69 vlineto
            424 callgsubr
            return
          </CharString>
          <CharString index="496">
            53 vhcurveto
            -77 hlineto
            -108 return
          </CharString>
          <CharString index="497">
            114 -58 46 -95 vhcurveto
            return
          </CharString>
          <CharString index="498">
            367 callgsubr
            24 return
          </CharString>
          <CharString index="499">
            hstemhm
            66 85 231 85 return
          </CharString>
          <CharString index="500">
            -31 callgsubr
            vhcurveto
            return
          </CharString>
          <CharString index="501">
            77 -65 81 219 80 return
          </CharString>
          <CharString index="502">
            hmoveto
            367 callsubr
            return
          </CharString>
          <CharString index="503">
            -425 78 441 78 return
          </CharString>
          <CharString index="504">
            65 199 65 return
          </CharString>
          <CharString index="505">
            115 146 return
          </CharString>
          <CharString index="506">
            68 298 67 return
          </CharString>
          <CharString index="507">
            81 190 78 return
          </CharString>
          <CharString index="508">
            hstemhm
            192 78 return
          </CharString>
          <CharString index="509">
            76 -66 79 173 79 -32 78 134 79 return
          </CharString>
          <CharString index="510">
            155 callgsubr
            -59 106 187 79 return
          </CharString>
          <CharString index="511">
            40 49 50 40 -40 -50 -49 -40 -40 -50 -49 return
          </CharString>
          <CharString index="512">
            -21 30 29 23 21 30 29 -23 23 -29 -30 return
          </CharString>
          <CharString index="513">
            387 371 callgsubr
            hstemhm
            100 78 -49 86 return
          </CharString>
          <CharString index="514">
            -67 368 -305 hlineto
            -63 -50 -45 -57 vhcurveto
            return
          </CharString>
          <CharString index="515">
            -91 1 -29 11 38 vvcurveto
            41 37 14 54 vhcurveto
            return
          </CharString>
          <CharString index="516">
            vvcurveto
            -26 14 -32 156 callgsubr
            69 return
          </CharString>
          <CharString index="517">
            66 -25 53 -51 28 vhcurveto
            116 vlineto
            endchar
          </CharString>
          <CharString index="518">
            hstem
            44 82 277 79 vstem
            return
          </CharString>
          <CharString index="519">
            -44 202 callsubr
            return
          </CharString>
          <CharString index="520">
            -36 -83 hvcurveto
            88 callsubr
            return
          </CharString>
          <CharString index="521">
            vlineto
            -39 -20 -23 -36 -45 vvcurveto
            return
          </CharString>
          <CharString index="522">
            -21 266 69 269 70 return
          </CharString>
          <CharString index="523">
            hlineto
            18 24 9 33 42 vvcurveto
            return
          </CharString>
          <CharString index="524">
            hhcurveto
            -47 -37 -17 -28 -25 hvcurveto
            return
          </CharString>
          <CharString index="525">
            -111 -145 -4 callgsubr
            return
          </CharString>
          <CharString index="526">
            78 254 callgsubr
            return
          </CharString>
          <CharString index="527">
            hstem
            77 81 244 82 vstem
            return
          </CharString>
          <CharString index="528">
            471 224 hstem
            return
          </CharString>
          <CharString index="529">
            67 239 67 hstemhm
            return
          </CharString>
          <CharString index="530">
            79 222 79 return
          </CharString>
          <CharString index="531">
            -29 22 -23 29 return
          </CharString>
          <CharString index="532">
            54 72 -16 vhcurveto
            return
          </CharString>
          <CharString index="533">
            68 110 67 return
          </CharString>
          <CharString index="534">
            79 272 78 return
          </CharString>
          <CharString index="535">
            -321 21 -21 return
          </CharString>
          <CharString index="536">
            -68 -58 23 59 38 20 28 37 20 hvcurveto
            return
          </CharString>
          <CharString index="537">
            -90 -73 -37 -89 -76 67 -39 85 -3 hvcurveto
            return
          </CharString>
          <CharString index="538">
            7 callsubr
            -91 hlineto
            return
          </CharString>
          <CharString index="539">
            vstem
            44 444 rmoveto
            71 237 -71 hlineto
            return
          </CharString>
          <CharString index="540">
            63 84 67 413 callgsubr
            return
          </CharString>
          <CharString index="541">
            -21 325 331 callsubr
            return
          </CharString>
          <CharString index="542">
            -224 rmoveto
            61 hlineto
            116 224 rlineto
            return
          </CharString>
          <CharString index="543">
            -716 rmoveto
            367 callsubr
            endchar
          </CharString>
          <CharString index="544">
            -52 51 88 84 57 49 90 hvcurveto
            endchar
          </CharString>
          <CharString index="545">
            -21 -28 vvcurveto
            -26 return
          </CharString>
          <CharString index="546">
            -67 95 -182 return
          </CharString>
        <CharString name=".notdef">
          -56 0 50 601 50 hstem
          1 52 400 52 vstem
          1 hmoveto
          504 701 -504 hlineto
          52 -50 rmoveto
          400 -601 -400 hlineto
          200 252 rmoveto
          105 -209 rlineto
          60 hlineto
          -135 254 135 261 rlineto
          -60 hlineto
          -100 -206 rlineto
          -4 hlineto
          -105 206 rlineto
          -60 hlineto
          134 -255 -134 -260 rlineto
          60 hlineto
          100 209 rlineto
          endchar
        </CharString>
        <CharString name="A">
          78 callsubr
          hstem
          35 578 vstem
          205 246 -95 callsubr
        </CharString>
        <CharString name="AE">
          311 0 71 106 69 55 71 231 71 hstem
          456 80 vstem
          252 246 rmoveto
          22 38 89 155 60 108 33 63 rlinecurve
          -364 vlineto
          80 -175 rmoveto
          230 256 71 -256 231 289 71 -419 vlineto
          -383 -674 rlineto
          87 hlineto
          102 177 rlineto
          244 -177 375 71 hlineto
          endchar
        </CharString>
        <CharString name="Aacute">
          300 callgsubr
          492 883 59 callgsubr
          -163 -481 -95 callsubr
        </CharString>
        <CharString name="Abreve">
          78 callsubr
          49 368 callsubr
          161 397 callsubr
          hintmask 11101110
          425 882 rmoveto
          hintmask 11110110
          -56 -27 -46 -72 vhcurveto
          hintmask 11101110
          -73 -27 46 56 hvcurveto
          -65 hlineto
          -15 callsubr
          -285 -636 -95 callsubr
        </CharString>
        <CharString name="Acircumflex">
          78 callsubr
          53 235 callsubr
          35 578 hintmask 11101100
          327 832 rmoveto
          hintmask 11110100
          -42 callgsubr
          -37 -481 -95 callsubr
        </CharString>
        <CharString name="Adieresis">
          78 callsubr
          80 103 hstem
          175 103 99 103 vstem
          428 754 -47 callgsubr
          -22 -508 -95 callsubr
        </CharString>
        <CharString name="Agrave">
          300 callgsubr
          354 727 rmoveto
          -98 156 rlineto
          53 callgsubr
          -80 -481 -95 callsubr
        </CharString>
        <CharString name="Amacron">
          78 callsubr
          103 56 hstem
          35 578 vstem
          468 833 273 callsubr
          -263 -531 -95 callsubr
        </CharString>
        <CharString name="Aogonek">
          78 -242 58 205 -21 177 69 363 65 hstem
          431 69 vstem
          204 246 rmoveto
          13 38 rlineto
          96 283 12 42 0 vvcurveto
          0 11 -42 94 -282 vhcurveto
          13 -39 rlineto
          -62 428 rmoveto
          -112 hlineto
          -235 -674 rlineto
          87 hlineto
          60 177 rlineto
          285 hlineto
          56 -167 rlineto
          -50 -32 -41 -50 -60 222 callsubr
          52 51 43 61 30 hvcurveto
          endchar
        </CharString>
        <CharString name="Aring">
          78 callsubr
          43 53 108 52 hstem
          221 53 107 52 vstem
          327 878 27 callsubr
          -122 -471 -95 callsubr
        </CharString>
        <CharString name="Atilde">
          78 callsubr
          83 399 callgsubr
          35 578 hintmask 11110100
          446 860 102 callgsubr
          hintmask 11101100
          -62 callsubr
          hintmask 11110100
          7 callgsubr
          -290 -580 -95 callsubr
        </CharString>
        <CharString name="B">
          3 0 69 237 69 230 69 hstemhm
          77 81 267 84 -65 84 hintmask 11110100
          158 69 rmoveto
          237 138 vlineto
          96 52 -45 -76 -76 -49 -40 -84 hvcurveto
          -153 536 rmoveto
          122 hlineto
          hintmask 11111000
          101 44 -50 -58 -66 -44 -56 -115 hvcurveto
          -108 hlineto
          -81 299 rmoveto
          -674 246 vlineto
          hintmask 11110100
          135 70 76 104 102 -68 50 -67 11 hvcurveto
          hintmask 11111000
          67 15 49 60 79 vvcurveto
          109 -91 68 -138 vhcurveto
          endchar
        </CharString>
        <CharString name="C">
          229 callsubr
          hstemhm
          48 85 hintmask 10110000
          558 647 rmoveto
          hintmask 11010000
          -84 callsubr
          endchar
        </CharString>
        <CharString name="CR">
          endchar
        </CharString>
        <CharString name="Cacute">
          229 callsubr
          100 156 hstemhm
          48 85 hintmask 10111000
          558 647 rmoveto
          hintmask 11011000
          -84 callsubr
          -228 163 134 callsubr
        </CharString>
        <CharString name="Ccaron">
          229 callsubr
          100 156 hstemhm
          48 85 hintmask 10111000
          558 647 rmoveto
          hintmask 11011000
          -84 callsubr
          -142 163 -21 callsubr
        </CharString>
        <CharString name="Ccedilla">
          34 -252 58 186 76 539 76 -36 -20 hstemhm
          48 85 223 66 hintmask 11011100
          333 -51 rmoveto
          15 -25 8 -20 -27 vvcurveto
          -42 -29 -25 -55 -4 vhcurveto
          -58 vlineto
          102 3 48 59 68 vvcurveto
          23 -6 31 -12 17 vhcurveto
          154 698 rmoveto
          hintmask 11101100
          -84 callsubr
          endchar
        </CharString>
        <CharString name="Ccircumflex">
          229 callsubr
          100 235 callsubr
          48 85 hintmask 10110100
          558 647 rmoveto
          hintmask 11010100
          -84 callsubr
          -233 319 rmoveto
          -24 callgsubr
          hintmask 10101100
          85 105 rlineto
          hintmask 10110100
          96 callgsubr
        </CharString>
        <CharString name="Cdotaccent">
          229 callsubr
          129 103 hstemhm
          48 85 187 103 hintmask 10111100
          320 808 rmoveto
          -29 22 -23 30 -79 callgsubr
          vhcurveto
          238 -161 rmoveto
          hintmask 11011100
          -84 callsubr
          endchar
        </CharString>
        <CharString name="D">
          93 0 71 531 72 hstem
          77 82 374 84 vstem
          159 71 80 callgsubr
        </CharString>
        <CharString name="Dcaron">
          93 0 71 531 72 52 156 hstem
          77 82 374 84 vstem
          344 726 -78 callsubr
          -109 -655 80 callgsubr
        </CharString>
        <CharString name="Dcroat">
          15 callgsubr
        </CharString>
        <CharString name="Delta">
          50 0 69 543 62 hstem
          31 556 vstem
          118 69 rmoveto
          68 193 rlineto
          99 281 26 69 0 vvcurveto
          0 25 -68 97 -282 vhcurveto
          67 -193 rlineto
          -133 605 rmoveto
          -112 hlineto
          -224 -608 rlineto
          -66 556 66 vlineto
          endchar
        </CharString>
        <CharString name="E">
          79 callgsubr
          400 callgsubr
          158 71 -56 callsubr
        </CharString>
        <CharString name="Eacute">
          79 callgsubr
          53 156 400 callgsubr
          437 883 59 callgsubr
          -155 -656 -56 callsubr
        </CharString>
        <CharString name="Ebreve">
          79 callgsubr
          50 368 callsubr
          77 81 -54 397 callsubr
          hintmask 11101101
          368 883 rmoveto
          hintmask 11110101
          -56 -27 -46 -72 vhcurveto
          hintmask 11101011
          -73 -27 46 56 hvcurveto
          -65 hlineto
          -15 callsubr
          hintmask 11101101
          -275 -812 -56 callsubr
        </CharString>
        <CharString name="Ecaron">
          79 callgsubr
          52 156 400 callgsubr
          309 726 -78 callsubr
          -75 -655 -56 callsubr
        </CharString>
        <CharString name="Ecircumflex">
          79 callgsubr
          53 235 callsubr
          77 81 hintmask 11101100
          273 832 rmoveto
          hintmask 11110100
          -42 callgsubr
          -30 -656 -56 callsubr
        </CharString>
        <CharString name="Edieresis">
          79 callgsubr
          79 103 hstemhm
          77 81 -42 103 99 103 hintmask 11111010
          369 753 rmoveto
          30 22 23 29 29 -22 22 -30 -29 -22 -22 -29 424 callsubr
          hvcurveto
          hintmask 11110110
          10 callgsubr
          hintmask 11111010
          -10 -682 -56 callsubr
        </CharString>
        <CharString name="Edotaccent">
          79 callgsubr
          81 103 hstem
          77 81 65 103 vstem
          275 755 rmoveto
          -79 callgsubr
          -29 22 -23 30 hvcurveto
          -117 -684 -56 callsubr
        </CharString>
        <CharString name="Egrave">
          79 callgsubr
          52 156 400 callgsubr
          320 726 rmoveto
          -98 156 rlineto
          53 callgsubr
          -93 -655 -56 callsubr
        </CharString>
        <CharString name="Emacron">
          79 callgsubr
          104 56 400 callgsubr
          404 834 273 callsubr
          -246 -707 -56 callsubr
        </CharString>
        <CharString name="Eng">
          105 -199 74 146 -21 577 97 417 callgsubr
          515 674 rmoveto
          -285 vlineto
          -194 4 -97 0 vhcurveto
          0 -54 97 -117 195 vhcurveto
          -169 284 rlineto
          -102 -674 81 284 hlineto
          189 -5 104 0 vhcurveto
          0 57 -104 115 -191 vhcurveto
          169 -282 rlineto
          21 -33 hlineto
          -63 -30 -29 -57 -30 -30 11 15 -24 vhcurveto
          -78 vlineto
          -15 25 40 -7 30 hhcurveto
          87 70 42 131 hvcurveto
          700 vlineto
          endchar
        </CharString>
        <CharString name="Eogonek">
          -67 -242 58 184 71 230 71 231 71 hstemhm
          77 81 25 68 hintmask 11111000
          453 hmoveto
          71 -295 230 256 71 -256 231 290 71 -371 -674 vlineto
          hintmask 11111100
          184 hlineto
          -43 -32 -35 -46 -54 16 callgsubr
          51 52 44 61 30 hvcurveto
          endchar
        </CharString>
        <CharString name="Eth">
          15 callgsubr
        </CharString>
        <CharString name="Euro">
          22 -8 75 154 57 101 57 148 76 hstem
          142 86 vstem
          550 637 rmoveto
          17 -32 -42 6 -46 hhcurveto
          -132 -106 -82 -142 -37 hvcurveto
          -103 -57 93 hlineto
          -2 -18 -1 -18 -19 vvcurveto
          -16 1 -15 1 -15 vhcurveto
          -92 -57 102 hlineto
          -142 34 105 -87 132 hhcurveto
          52 39 6 18 34 hvcurveto
          78 vlineto
          -19 -31 -41 -8 -44 hhcurveto
          -89 -76 54 100 -30 hvcurveto
          201 57 -212 hlineto
          -2 15 -1 15 0 16 0 19 1 19 17 flex1
          212 57 -199 hlineto
          96 31 73 52 94 hhcurveto
          43 39 -7 -18 29 hvcurveto
          endchar
        </CharString>
        <CharString name="F">
          -79 21 -21 293 71 239 71 400 callgsubr
          447 603 rmoveto
          71 -370 -674 81 293 254 71 -254 239 vlineto
          endchar
        </CharString>
        <CharString name="G">
          250 callsubr
          hstem
          48 85 389 81 vstem
          603 378 -84 callgsubr
        </CharString>
        <CharString name="Gbreve">
          250 callsubr
          38 368 callsubr
          48 85 71 397 callsubr
          -11 81 hintmask 1110110100000000
          468 883 rmoveto
          hintmask 1111010100000000
          -56 -27 -46 -72 vhcurveto
          hintmask 1110111100000000
          -73 -27 46 56 hvcurveto
          -65 hlineto
          -15 callsubr
          hintmask 1110110010000000
          70 -505 -84 callgsubr
        </CharString>
        <CharString name="Gcircumflex">
          250 callsubr
          40 235 callsubr
          48 85 389 81 hintmask 11101110
          366 831 rmoveto
          hintmask 11110110
          -42 callgsubr
          322 -348 -84 callgsubr
        </CharString>
        <CharString name="Gdotaccent">
          250 callsubr
          68 103 hstem
          48 85 190 103 96 81 vstem
          375 754 rmoveto
          -79 callgsubr
          -29 22 -23 30 hvcurveto
          228 -376 -84 callgsubr
        </CharString>
        <CharString name="H">
          75 21 -21 305 73 hstem
          77 81 327 81 vstem
          485 674 224 callgsubr
        </CharString>
        <CharString name="Hbar">
          138 21 -21 305 73 135 57 hstem
          108 81 327 82 vstem
          516 378 rmoveto
          -327 135 327 hlineto
          156 57 rmoveto
          -74 104 -82 -104 -327 104 -81 -104 -75 -57 75 -513 81 305 327 -305 82 513 74 hlineto
          endchar
        </CharString>
        <CharString name="Hcircumflex">
          75 21 -21 305 73 348 235 callsubr
          77 81 327 81 hintmask 11011100
          325 831 rmoveto
          hintmask 11101100
          -42 callgsubr
          245 -52 224 callgsubr
        </CharString>
        <CharString name="I">
          428 callsubr
          hstem
          83 81 vstem
          83 177 callsubr
          endchar
        </CharString>
        <CharString name="IJ">
          -5 0 74 hstem
          83 81 242 81 vstem
          83 177 callsubr
          152 -652 62 callgsubr
          endchar
        </CharString>
        <CharString name="Iacute">
          428 callsubr
          727 156 hstem
          83 81 vstem
          83 177 callsubr
          10 53 134 callsubr
        </CharString>
        <CharString name="Ibreve">
          428 callsubr
          724 368 callsubr
          -40 65 58 81 60 65 hintmask 10111100
          -40 883 rmoveto
          -15 callsubr
          -65 hlineto
          hintmask 11011100
          -56 -27 -46 -72 vhcurveto
          hintmask 10111100
          -73 -27 46 56 hvcurveto
          58 438 callgsubr
        </CharString>
        <CharString name="Icircumflex">
          428 callsubr
          727 235 callsubr
          83 81 hintmask 11010000
          86 883 rmoveto
          -24 callgsubr
          hintmask 10110000
          85 105 rlineto
          hintmask 11010000
          -64 callsubr
          -79 438 callgsubr
        </CharString>
        <CharString name="Idieresis">
          428 callsubr
          754 103 hstemhm
          -27 103 7 81 11 103 hintmask 11010000
          83 177 callsubr
          hintmask 11101000
          -110 132 -63 callsubr
          endchar
        </CharString>
        <CharString name="Idotaccent">
          428 callsubr
          756 103 hstemhm
          73 103 -93 81 hintmask 11010000
          83 177 callsubr
          hintmask 11100000
          -10 134 rmoveto
          269 callgsubr
        </CharString>
        <CharString name="Igrave">
          428 callsubr
          727 156 hstem
          83 81 vstem
          83 177 callsubr
          -28 209 rmoveto
          53 callgsubr
          69 hlineto
          endchar
        </CharString>
        <CharString name="Imacron">
          428 callsubr
          777 56 hstem
          83 81 vstem
          83 177 callsubr
          182 103 253 callgsubr
          endchar
        </CharString>
        <CharString name="Iogonek">
          -321 -242 58 206 -21 hstem
          -16 68 31 81 vstem
          164 1 rmoveto
          673 -81 -660 vlineto
          -53 -32 -46 -51 -63 16 callgsubr
          51 52 44 61 30 hvcurveto
          endchar
        </CharString>
        <CharString name="Itilde">
          428 callsubr
          755 399 callgsubr
          83 81 hintmask 10110000
          83 177 callsubr
          hintmask 11010000
          160 184 102 callgsubr
          hintmask 10110000
          -62 callsubr
          hintmask 11010000
          165 callsubr
        </CharString>
        <CharString name="J">
          -210 0 74 hstem
          201 81 vstem
          30 22 62 callgsubr
          endchar
        </CharString>
        <CharString name="Jcircumflex">
          -170 0 74 652 235 callsubr
          201 81 hintmask 11010000
          30 22 62 callgsubr
          175 782 rmoveto
          -24 callgsubr
          hintmask 10110000
          85 105 rlineto
          hintmask 11010000
          96 callgsubr
        </CharString>
        <CharString name="K">
          5 21 -21 400 callgsubr
          77 177 callsubr
          197 -341 245 callsubr
        </CharString>
        <CharString name="L">
          -91 0 73 400 callgsubr
          158 73 190 callsubr
        </CharString>
        <CharString name="Lacute">
          -91 0 73 654 156 400 callgsubr
          448 883 59 callgsubr
          -166 -53 rmoveto
          -81 -674 368 73 -287 hlineto
          endchar
        </CharString>
        <CharString name="Lcaron">
          -91 0 73 436 192 400 callgsubr
          424 701 rmoveto
          -91 hlineto
          -85 -192 rlineto
          65 hlineto
          -155 -436 190 callsubr
        </CharString>
        <CharString name="Ldot">
          -83 0 73 237 114 hstem
          77 81 104 115 vstem
          319 310 rmoveto
          32 26 24 32 32 -26 26 -32 -33 -24 -26 -32 -32 24 -24 33 hvcurveto
          -161 -237 190 callsubr
        </CharString>
        <CharString name="Lslash">
          -68 0 73 hstem
          97 81 vstem
          178 73 rmoveto
          228 vlineto
          150 103 rlineto
          78 vlineto
          -150 -104 rlineto
          296 -81 -352 vlineto
          -68 -47 rlineto
          -77 vlineto
          68 47 rlineto
          -245 368 73 vlineto
          endchar
        </CharString>
        <CharString name="M">
          289 21 -21 565 109 hstem
          70 718 vstem
          70 hmoveto
          81 hlineto
          19 266 rlineto
          11 147 8 134 12 vvcurveto
          0 45 -131 57 -162 vhcurveto
          89 -251 rlineto
          77 hlineto
          94 251 rlineto
          56 151 53 148 0 vvcurveto
          0 10 -147 14 -152 vhcurveto
          23 -266 rlineto
          81 hlineto
          -59 674 rlineto
          -103 hlineto
          -93 -246 rlineto
          -56 -150 -58 -164 0 vvcurveto
          0 -56 169 -52 145 vhcurveto
          -89 246 rlineto
          -103 hlineto
          endchar
        </CharString>
        <CharString name="N">
          105 21 -21 577 97 417 callgsubr
          66 callgsubr
          endchar
        </CharString>
        <CharString name="NULL">
          endchar
        </CharString>
        <CharString name="Nacute">
          105 21 -21 577 97 52 156 417 callgsubr
          326 726 -25 callgsubr
          -348 -882 rmoveto
          -69 callsubr
          endchar
        </CharString>
        <CharString name="Ncaron">
          105 21 -21 577 97 53 156 417 callgsubr
          66 callgsubr
          314 53 -21 callsubr
        </CharString>
        <CharString name="Ntilde">
          105 21 -21 577 97 83 399 callgsubr
          77 81 357 81 hintmask 11011100
          66 callgsubr
          hintmask 11101100
          388 186 -30 callgsubr
          endchar
        </CharString>
        <CharString name="O">
          142 callgsubr
          414 callgsubr
          44 callgsubr
          endchar
        </CharString>
        <CharString name="OE">
          415 -8 77 -69 71 230 71 231 71 -63 76 hstemhm
          48 85 426 79 hintmask 10101110
          346 69 rmoveto
          -131 -82 103 168 168 76 103 136 139 75 -103 -168 -168 -75 -103 -138 hvcurveto
          hintmask 01110110
          292 2 rmoveto
          230 258 71 -258 231 292 71 -371 vlineto
          hintmask 10101110
          -82 vlineto
          61 -50 -72 34 -92 hhcurveto
          -185 -112 -136 -211 -211 116 -137 182 90 73 35 61 50 hvcurveto
          hintmask 01110110
          -88 376 71 vlineto
          endchar
        </CharString>
        <CharString name="Oacute">
          165 callgsubr
          324 727 -25 callgsubr
          -375 -543 -92 callgsubr
          endchar
        </CharString>
        <CharString name="Obreve">
          142 callgsubr
          37 368 callsubr
          48 85 58 397 callsubr
          47 86 hintmask 11011111
          191 883 rmoveto
          -15 callsubr
          -65 hlineto
          hintmask 11101111
          -56 -27 -46 -72 vhcurveto
          hintmask 11011111
          -73 -27 46 56 hvcurveto
          -123 -543 rmoveto
          168 81 103 136 139 78 -103 -168 -168 -78 -103 -138 -131 -87 103 168 vhcurveto
          -85 hmoveto
          -211 121 -137 182 186 116 137 211 211 -112 136 -191 -185 -117 -136 -211 vhcurveto
          endchar
        </CharString>
        <CharString name="Ocircumflex">
          142 callgsubr
          40 235 callsubr
          308 callgsubr
          hintmask 11101100
          133 340 rmoveto
          168 81 103 136 139 78 -103 -168 -168 -78 -103 -138 -131 -87 103 168 vhcurveto
          -85 hmoveto
          -211 121 -137 182 186 116 137 211 211 -112 136 -191 -185 -117 -136 -211 vhcurveto
          271 543 rmoveto
          -24 callgsubr
          hintmask 11011100
          85 105 rlineto
          hintmask 11101100
          96 callgsubr
        </CharString>
        <CharString name="Odieresis">
          142 callgsubr
          67 103 hstem
          48 85 69 103 99 103 60 86 vstem
          202 806 -63 callsubr
          -356 -466 -92 callgsubr
          endchar
        </CharString>
        <CharString name="Ograve">
          165 callgsubr
          44 callgsubr
          162 543 rmoveto
          53 callgsubr
          69 hlineto
          endchar
        </CharString>
        <CharString name="Ohungarumlaut">
          165 callgsubr
          413 727 92 callgsubr
          -305 -543 -92 callgsubr
          endchar
        </CharString>
        <CharString name="Omacron">
          142 callgsubr
          90 56 414 callgsubr
          492 777 253 callgsubr
          -162 -437 -92 callgsubr
          endchar
        </CharString>
        <CharString name="Oslash">
          107 -9 103 -102 75 545 75 hstemhm
          41 84 437 84 hintmask 01111000
          520 518 rmoveto
          28 -46 14 -60 -72 vvcurveto
          -169 -79 -104 -138 -51 -43 15 28 -35 vhcurveto
          -47 53 rmoveto
          -28 45 -16 60 72 vvcurveto
          169 82 103 136 52 44 -14 -27 34 vhcurveto
          174 116 rmoveto
          -88 hlineto
          -39 -52 rlineto
          34 -47 -60 18 -70 hhcurveto
          -185 -117 -136 -211 hvcurveto
          hintmask 10111000
          -101 28 -84 49 -61 vhcurveto
          hintmask 01111000
          -77 -103 rlineto
          86 hlineto
          41 55 rlineto
          -35 48 60 -19 69 hhcurveto
          185 116 137 211 102 -26 84 -48 60 hvcurveto
          endchar
        </CharString>
        <CharString name="Otilde">
          142 callgsubr
          71 399 callgsubr
          308 callgsubr
          hintmask 11011100
          44 callgsubr
          hintmask 11101100
          339 521 -30 callgsubr
          endchar
        </CharString>
        <CharString name="P">
          -23 21 -21 248 69 288 69 hstem
          77 81 266 82 vstem
          158 317 rmoveto
          288 101 vlineto
          106 -1 59 -61 -86 vvcurveto
          -76 -57 -62 -100 -2 vhcurveto
          -190 357 rmoveto
          -674 81 248 104 vlineto
          150 94 91 118 126 -93 91 -159 hvcurveto
          endchar
        </CharString>
        <CharString name="Q">
          141 -8 77 542 76 414 callgsubr
          133 340 rmoveto
          168 81 103 136 139 78 -103 -168 -168 -78 -103 -138 -131 -87 103 168 vhcurveto
          550 -445 rmoveto
          -200 124 rlineto
          107 50 63 116 155 vvcurveto
          211 -112 136 -191 -185 -117 -136 -211 -211 121 -137 182 15 15 1 2 14 vhcurveto
          200 -137 rlineto
          endchar
        </CharString>
        <CharString name="R">
          326 callsubr
          420 callsubr
          158 604 -13 callgsubr
        </CharString>
        <CharString name="Racute">
          326 callsubr
          53 156 420 callsubr
          429 883 59 callgsubr
          -147 -123 -13 callgsubr
        </CharString>
        <CharString name="Rcaron">
          326 callsubr
          52 156 420 callsubr
          316 726 -78 callsubr
          -82 -122 -13 callgsubr
        </CharString>
        <CharString name="S">
          -44 -7 296 callgsubr
          392 callsubr
          hintmask 10111000
          430 649 rmoveto
          hintmask 11011000
          -91 callgsubr
          endchar
        </CharString>
        <CharString name="Sacute">
          264 callsubr
          247 726 -25 callgsubr
          84 -233 rmoveto
          hintmask 11011100
          -91 callgsubr
          endchar
        </CharString>
        <CharString name="Scaron">
          264 callsubr
          430 649 rmoveto
          hintmask 11011100
          -91 callgsubr
          -129 162 -21 callsubr
        </CharString>
        <CharString name="Scircumflex">
          406 callgsubr
          -51 51 392 callsubr
          hintmask 10110110
          430 649 rmoveto
          hintmask 11010110
          -91 callgsubr
          -211 318 rmoveto
          -24 callgsubr
          hintmask 10101110
          85 105 rlineto
          hintmask 10110110
          96 callgsubr
        </CharString>
        <CharString name="T">
          -86 21 -21 603 393 callgsubr
          463 674 190 callgsubr
        </CharString>
        <CharString name="Tbar">
          -86 21 -21 298 64 241 393 callgsubr
          463 603 rmoveto
          71 -445 -71 182 -241 -118 -64 118 -298 81 298 118 64 -118 241 vlineto
          endchar
        </CharString>
        <CharString name="Tcaron">
          -86 21 -21 603 71 53 156 hstem
          200 81 vstem
          279 727 -78 callsubr
          260 -53 190 callgsubr
        </CharString>
        <CharString name="Thorn">
          -32 21 -21 124 69 288 69 hstem
          77 81 258 82 vstem
          158 193 rmoveto
          288 91 vlineto
          118 49 -63 -87 -76 -49 -62 -110 hvcurveto
          -99 357 rmoveto
          124 -81 -674 81 124 96 vlineto
          158 86 91 118 126 -85 91 -167 hvcurveto
          endchar
        </CharString>
        <CharString name="U">
          77 -8 76 hstem
          342 callsubr
          vstem
          488 254 30 callgsubr
        </CharString>
        <CharString name="Uacute">
          77 -8 76 659 156 hstem
          342 callsubr
          vstem
          300 727 -25 callgsubr
          89 -629 30 callgsubr
        </CharString>
        <CharString name="Ubreve">
          77 -8 76 655 368 callsubr
          76 81 4 397 callsubr
          -2 81 hintmask 10101100
          161 882 rmoveto
          -15 callsubr
          -65 hlineto
          hintmask 11010100
          -56 -27 -46 -72 vhcurveto
          hintmask 10101010
          -73 -27 46 56 hvcurveto
          262 -628 rmoveto
          234 callsubr
          vhcurveto
          hintmask 10110010
          235 callgsubr
          hvcurveto
          425 -81 -426 vlineto
          -169 94 -87 151 153 95 87 177 vhcurveto
          418 -81 vlineto
          endchar
        </CharString>
        <CharString name="Ucircumflex">
          77 -8 76 659 235 callsubr
          342 callsubr
          hintmask 11011000
          488 254 -83 callgsubr
          -202 209 rmoveto
          -24 callgsubr
          hintmask 10111000
          85 105 rlineto
          hintmask 11011000
          96 callgsubr
        </CharString>
        <CharString name="Udieresis">
          77 -8 76 686 103 hstemhm
          76 81 14 103 99 103 12 81 vstemhm
          171 806 -63 callsubr
          hintmask 10100100
          115 -552 30 callgsubr
        </CharString>
        <CharString name="Ugrave">
          77 -8 76 659 156 hstem
          342 callsubr
          vstem
          488 254 -83 callgsubr
          -226 209 rmoveto
          53 callgsubr
          69 hlineto
          endchar
        </CharString>
        <CharString name="Uhungarumlaut">
          77 -8 76 659 156 hstem
          342 callsubr
          vstem
          488 254 -83 callgsubr
          -121 53 92 callgsubr
          endchar
        </CharString>
        <CharString name="Umacron">
          77 -8 76 709 56 hstem
          342 callsubr
          vstem
          488 254 -83 callgsubr
          -21 103 253 callgsubr
          endchar
        </CharString>
        <CharString name="Uogonek">
          77 -235 58 170 75 hstem
          76 81 82 68 181 81 vstem
          488 674 rmoveto
          -420 vlineto
          234 callsubr
          235 callgsubr
          vhcurveto
          425 -81 -426 vlineto
          -161 85 -86 138 -8 vhcurveto
          -34 -31 -26 -40 -47 16 callgsubr
          51 52 44 60 30 hvcurveto
          95 31 55 83 135 vvcurveto
          418 vlineto
          endchar
        </CharString>
        <CharString name="Uring">
          77 -8 76 648 53 108 52 hstem
          76 81 62 53 107 52 57 81 vstem
          219 822 125 callsubr
          216 -569 30 callgsubr
        </CharString>
        <CharString name="Utilde">
          77 -8 76 688 399 callgsubr
          342 callsubr
          hintmask 10111000
          488 254 -83 callgsubr
          hintmask 11011000
          -39 185 102 callgsubr
          hintmask 10111000
          -62 callsubr
          hintmask 11011000
          165 callsubr
        </CharString>
        <CharString name="V">
          69 21 -21 hstem
          36 565 vstem
          601 674 rmoveto
          -87 hlineto
          -90 -267 rlineto
          -69 -208 -39 -126 0 vvcurveto
          0 -37 126 -68 208 vhcurveto
          -88 267 rlineto
          -87 hlineto
          228 -674 rlineto
          102 hlineto
          endchar
        </CharString>
        <CharString name="W">
          228 callsubr
          hstem
          36 866 vstem
          432 664 -92 callsubr
          endchar
        </CharString>
        <CharString name="Wacute">
          228 callsubr
          63 156 hstem
          36 866 vstem
          432 664 -92 callsubr
          -67 63 134 callsubr
        </CharString>
        <CharString name="Wcircumflex">
          228 callsubr
          63 235 callsubr
          36 866 hintmask 11101000
          432 664 -92 callsubr
          -76 219 rmoveto
          -24 callgsubr
          hintmask 11011000
          85 105 rlineto
          hintmask 11101000
          96 callgsubr
        </CharString>
        <CharString name="Wdieresis">
          228 callsubr
          89 103 hstem
          321 103 99 103 vstem
          432 664 -92 callsubr
          10 141 113 callgsubr
        </CharString>
        <CharString name="Wgrave">
          228 callsubr
          62 156 hstem
          36 866 vstem
          403 882 rmoveto
          53 callgsubr
          69 hlineto
          -69 -62 -92 callsubr
          endchar
        </CharString>
        <CharString name="X">
          45 21 -21 hstem
          39 535 vstem
          256 340 rmoveto
          -217 -340 rlineto
          96 hlineto
          8 15 151 241 9 15 176 -271 rcurveline
          95 hlineto
          -226 340 204 334 rlineto
          -96 hlineto
          -8 -14 -140 -233 -7 -14 -155 261 rcurveline
          -95 hlineto
          endchar
        </CharString>
        <CharString name="Y">
          25 21 -21 hstem
          255 81 vstem
          567 674 rmoveto
          -94 hlineto
          -51 -99 rlineto
          -33 callsubr
        </CharString>
        <CharString name="Yacute">
          25 21 -21 726 156 hstem
          255 81 vstem
          472 882 59 callgsubr
          219 -52 rmoveto
          -94 hlineto
          -51 -99 rlineto
          -33 callsubr
        </CharString>
        <CharString name="Ycircumflex">
          25 21 -21 726 235 callsubr
          255 81 hintmask 10110000
          296 831 rmoveto
          hintmask 11010000
          -42 callgsubr
          356 -52 rmoveto
          -94 hlineto
          -51 -99 rlineto
          -33 callsubr
        </CharString>
        <CharString name="Ydieresis">
          25 21 -21 753 103 hstemhm
          145 103 7 81 11 103 hintmask 11101000
          398 753 -47 callgsubr
          370 -79 rmoveto
          -94 hlineto
          -51 -99 rlineto
          hintmask 11010000
          -33 callsubr
        </CharString>
        <CharString name="Ygrave">
          25 21 -21 727 156 hstem
          255 81 vstem
          341 727 rmoveto
          -98 156 rlineto
          53 callgsubr
          295 -53 rmoveto
          -94 hlineto
          -51 -99 rlineto
          -33 callsubr
        </CharString>
        <CharString name="Z">
          387 callgsubr
          hstem
          52 465 vstem
          502 674 41 callgsubr
          endchar
        </CharString>
        <CharString name="Zacute">
          387 callgsubr
          53 156 hstem
          52 465 vstem
          263 727 -25 callgsubr
          140 -209 41 callgsubr
          endchar
        </CharString>
        <CharString name="Zcaron">
          387 callgsubr
          53 156 hstem
          52 465 vstem
          502 674 41 callgsubr
          -181 119 -21 callsubr
        </CharString>
        <CharString name="Zdotaccent">
          387 callgsubr
          82 103 hstem
          240 103 vstem
          502 674 41 callgsubr
          -262 200 rmoveto
          269 callgsubr
        </CharString>
        <CharString name="a">
          38 callsubr
          336 callgsubr
          hintmask 10111100
          346 234 -94 callgsubr
          hintmask 01111100
          -36 callgsubr
        </CharString>
        <CharString name="aacute">
          38 callsubr
          45 156 290 callsubr
          416 716 59 callgsubr
          54 -326 -94 callgsubr
          hintmask 01111110
          -36 callgsubr
        </CharString>
        <CharString name="abreve">
          38 callsubr
          41 57 hstemhm
          47 83 -45 65 196 79 -76 65 hintmask 1011101010000000
          349 715 rmoveto
          121 callgsubr
          -65 hlineto
          -15 callsubr
          hintmask 1011110100000000
          -68 -481 -94 callgsubr
          hintmask 0111110100000000
          -36 callgsubr
        </CharString>
        <CharString name="acircumflex">
          38 callsubr
          44 156 290 callsubr
          254 664 rmoveto
          -42 callgsubr
          177 -325 -94 callgsubr
          hintmask 01111110
          -36 callgsubr
        </CharString>
        <CharString name="acute">
          275 callsubr
          115 193 vstem
          115 642 134 callsubr
        </CharString>
        <CharString name="adieresis">
          38 callsubr
          69 103 hstemhm
          47 83 -30 103 99 103 -59 79 hintmask 1011101100000000
          353 584 -47 callgsubr
          hintmask 1011110010000000
          194 -350 -94 callgsubr
          hintmask 0111110010000000
          -36 callgsubr
        </CharString>
        <CharString name="ae">
          251 -5 69 156 66 -54 66 146 69 hstemhm
          52 82 217 78 272 78 hintmask 11011110
          351 177 rmoveto
          -70 -53 -43 -65 -66 -33 33 48 vhcurveto
          hintmask 10111110
          58 49 29 93 vhcurveto
          75 hlineto
          hintmask 11011110
          350 54 rmoveto
          -272 hlineto
          110 12 64 48 70 hhcurveto
          73 52 -47 -91 1 hvcurveto
          73 -86 rmoveto
          3 16 2 26 13 vvcurveto
          153 -72 85 -131 -74 -63 -31 -57 -38 vhcurveto
          57 -23 -54 33 -88 hhcurveto
          -56 -57 -15 -21 -34 hvcurveto
          -77 vlineto
          25 38 57 17 49 hhcurveto
          89 29 -45 -76 hvcurveto
          hintmask 10111110
          -25 -90 vlineto
          -128 -81 -57 -99 -91 66 -56 97 94 63 45 59 24 hvcurveto
          -64 40 80 -40 87 hhcurveto
          45 58 11 20 37 hvcurveto
          74 vlineto
          -24 -35 -54 -11 -45 hhcurveto
          hintmask 11011110
          -93 -73 52 103 -13 hvcurveto
          endchar
        </CharString>
        <CharString name="agrave">
          38 callsubr
          45 156 290 callsubr
          291 560 rmoveto
          -98 156 rlineto
          53 callgsubr
          124 -326 -94 callgsubr
          hintmask 01111110
          -36 callgsubr
        </CharString>
        <CharString name="amacron">
          38 callsubr
          95 56 290 callsubr
          388 666 273 callsubr
          -42 -376 -94 callgsubr
          hintmask 01111110
          -36 callgsubr
        </CharString>
        <CharString name="ampersand">
          135 -8 73 -44 -21 618 72 hstemhm
          65 82 -15 82 213 81 38 76 hintmask 10110100
          315 65 rmoveto
          -97 -71 43 69 56 45 35 81 31 hvcurveto
          24 -23 86 -79 88 -82 rrcurveto
          -33 -41 -54 -17 -61 hhcurveto
          hintmask 01101110
          3 553 rmoveto
          74 35 -48 -54 -56 -40 -41 -88 -41 hvcurveto
          -64 65 -21 36 43 vvcurveto
          62 46 34 58 vhcurveto
          383 -618 rmoveto
          -127 118 28 43 16 51 4 56 rlinecurve
          -76 hlineto
          -3 -38 -10 -32 -15 -28 -169 158 rcurveline
          119 55 40 61 73 vvcurveto
          97 -74 76 -115 -113 -74 -67 -100 -62 33 -49 58 -63 vhcurveto
          hintmask 10110110
          -102 -39 -56 -52 -82 vvcurveto
          -107 100 -77 152 89 70 27 44 50 vhcurveto
          hintmask 01110110
          68 -63 rlineto
          endchar
        </CharString>
        <CharString name="aogonek">
          -77 -242 58 179 69 -48 -21 26 -21 232 66 146 71 hstemhm
          47 82 115 69 33 79 hintmask 1100111110000000
          346 232 rmoveto
          -70 vlineto
          -52 -49 -46 -69 -66 -33 33 48 58 49 29 93 vhcurveto
          154 89 rmoveto
          124 -56 70 -135 -57 -59 -15 -21 -34 vhcurveto
          -77 vlineto
          25 38 57 17 49 hhcurveto
          89 29 -45 -76 hvcurveto
          -25 -90 vlineto
          -128 -81 -57 -99 -89 64 -58 94 63 50 29 39 29 hvcurveto
          hintmask 1010111110000000
          -47 vlineto
          -54 -32 -49 -52 -64 222 callsubr
          hvcurveto
          hintmask 1001111110000000
          52 51 43 61 30 vhcurveto
          endchar
        </CharString>
        <CharString name="approxequal">
          49 168 70 3 70 57 70 3 70 hstemhm
          50 516 hintmask 10101000
          509 297 rmoveto
          -36 -20 -30 -23 -39 hhcurveto
          hintmask 01101000
          146 callsubr
          -57 241 rmoveto
          -35 -20 -30 -24 -39 hhcurveto
          hintmask 10011000
          146 callsubr
          endchar
        </CharString>
        <CharString name="aring">
          38 callsubr
          35 53 108 52 hstemhm
          47 83 19 53 107 52 -15 79 hintmask 1011111110000000
          255 711 27 callsubr
          hintmask 1011111001000000
          91 -316 -94 callgsubr
          hintmask 0111111001000000
          -36 callgsubr
        </CharString>
        <CharString name="asciicircum">
          -107 540 54 hstem
          45 371 vstem
          416 332 rmoveto
          -138 262 rlineto
          -91 hlineto
          -142 -262 rlineto
          79 hlineto
          108 208 105 -208 rlineto
          endchar
        </CharString>
        <CharString name="asciitilde">
          31 194 72 2 72 hstemhm
          36 527 hintmask 10100000
          504 326 rmoveto
          -36 -21 -30 -24 -40 hhcurveto
          hintmask 01100000
          -71 -50 74 -100 hhcurveto
          -59 -54 -35 -60 -43 hvcurveto
          53 -46 rlineto
          49 34 38 20 43 hhcurveto
          hintmask 10100000
          62 66 -74 88 hhcurveto
          65 43 36 54 35 hvcurveto
          endchar
        </CharString>
        <CharString name="asterisk">
          -160 488 186 hstem
          171 64 vstem
          250 488 rmoveto
          10 13 1 5 13 hvcurveto
          92 30 -20 61 -92 -29 -17 -5 -13 -8 -9 -9 rlinecurve
          5 11 3 15 18 vvcurveto
          96 -64 -96 vlineto
          -20 4 -15 5 -11 vhcurveto
          -9 8 -12 9 -18 6 -93 30 rcurveline
          -19 -62 91 -30 rlineto
          -5 14 11 -1 11 3 2 0 3 hhcurveto
          -11 -6 -10 -10 -10 -13 -57 -79 rcurveline
          52 -37 57 77 10 14 6 13 3 13 rlinecurve
          3 -12 6 -13 10 -14 57 -78 rcurveline
          51 38 -56 78 -10 15 -11 9 -11 6 rlinecurve
          endchar
        </CharString>
        <CharString name="at">
          337 -168 68 118 65 -62 64 264 66 131 67 hstemhm
          60 76 121 75 228 59 169 70 hintmask 1101111110000000
          429 83 rmoveto
          -57 -40 45 70 83 49 68 71 67 31 -40 -65 10 hvcurveto
          -2 -20 -1 -18 -1 -17 rrcurveto
          -69 -22 -54 -37 -51 hhcurveto
          165 -140 rmoveto
          -32 -58 -61 -11 -59 hhcurveto
          -144 -136 96 200 203 165 147 188 166 133 -99 -188 hvcurveto
          hintmask 1011111110000000
          -104 -46 -70 -57 -50 -16 38 63 19 1 27 3 40 vhcurveto
          15 138 rlineto
          -66 hlineto
          -1 -21 -2 -20 -1 -18 rrcurveto
          40 -24 -38 24 -56 hhcurveto
          -110 -83 -94 -119 hvcurveto
          hintmask 1101111110000000
          -102 58 -82 101 64 51 34 55 33 vhcurveto
          hintmask 1011111110000000
          -42 12 30 -44 75 hhcurveto
          83 94 79 164 216 -168 133 -199 -236 -195 -175 -242 -207 132 -157 222 53 70 7 27 53 hvcurveto
          endchar
        </CharString>
        <CharString name="atilde">
          38 callsubr
          75 60 -16 60 336 callgsubr
          hintmask 10111011
          370 693 102 callgsubr
          hintmask 10110111
          -62 callsubr
          hintmask 10111011
          7 callgsubr
          -73 -425 -94 callgsubr
          hintmask 01111011
          -36 callgsubr
        </CharString>
        <CharString name="b">
          2 332 callgsubr
          hstemhm
          76 79 290 82 hintmask 10111000
          304 64 rmoveto
          -72 -77 46 147 143 87 43 57 80 66 -64 -131 -110 -61 -74 -80 hvcurveto
          -149 643 rmoveto
          -79 hlineto
          hintmask 01111000
          -707 79 vlineto
          hintmask 10111000
          75 vlineto
          -49 32 50 -34 74 hhcurveto
          141 75 122 135 159 -91 107 -127 -68 -52 -32 -52 -34 hvcurveto
          endchar
        </CharString>
        <CharString name="backslash">
          -166 -103 810 hstem
          -33 445 vstem
          48 707 rmoveto
          -81 hlineto
          365 -810 rlineto
          80 hlineto
          endchar
        </CharString>
        <CharString name="bar">
          -340 -194 889 hstem
          78 72 vstem
          78 -194 rmoveto
          72 889 -72 hlineto
          endchar
        </CharString>
        <CharString name="braceleft">
          380 callsubr
          144 81 -60 81 hintmask 11110000
          321 705 rmoveto
          5 -16 -16 3 -15 hhcurveto
          -70 -60 -57 -93 hvcurveto
          hintmask 11101000
          -52 21 -45 -46 vvcurveto
          -58 -29 -50 -59 -9 vhcurveto
          -2 -11 -11 0 -7 hhcurveto
          -77 vlineto
          7 13 0 -2 9 hvcurveto
          63 -13 25 -48 -58 -46 -21 -45 -52 vvcurveto
          hintmask 11110000
          -93 60 -56 70 15 16 2 6 16 vhcurveto
          77 vlineto
          -6 -11 -12 -3 -10 hhcurveto
          -43 -20 34 40 hvcurveto
          54 21 45 59 vvcurveto
          hintmask 11101000
          71 -41 59 -81 13 vhcurveto
          81 13 41 58 72 vvcurveto
          hintmask 11110000
          58 -21 45 54 vvcurveto
          40 20 34 43 10 12 -3 -6 11 vhcurveto
          endchar
        </CharString>
        <CharString name="braceright">
          380 callsubr
          89 80 -60 81 hintmask 11101000
          13 627 rmoveto
          6 11 13 3 10 hhcurveto
          42 20 -34 -40 hvcurveto
          -54 -20 -45 -58 vvcurveto
          hintmask 11110000
          -72 41 -58 80 -13 vhcurveto
          -80 -13 -41 -59 -71 vvcurveto
          hintmask 11101000
          -59 20 -45 -54 vvcurveto
          -40 -20 -34 -42 -10 -13 3 6 -11 vhcurveto
          -77 vlineto
          -6 16 16 -2 15 hhcurveto
          70 60 56 93 hvcurveto
          hintmask 11110000
          52 -21 45 46 vvcurveto
          58 26 48 62 13 vhcurveto
          2 9 13 0 7 hhcurveto
          77 vlineto
          -7 -11 0 2 -11 hvcurveto
          -59 9 -29 50 58 46 21 45 52 vvcurveto
          hintmask 11101000
          93 -60 57 -70 -15 -16 -3 -5 -16 vhcurveto
          endchar
        </CharString>
        <CharString name="bracketleft">
          -258 -183 72 748 70 hstem
          77 78 vstem
          307 637 rmoveto
          70 -230 -890 230 72 -152 748 vlineto
          endchar
        </CharString>
        <CharString name="bracketright">
          -258 -183 72 748 70 hstem
          155 78 vstem
          233 707 rmoveto
          -230 -70 152 -748 -152 -72 230 hlineto
          endchar
        </CharString>
        <CharString name="breve">
          -147 639 57 hstem
          46 397 callsubr
          vstem
          46 798 rmoveto
          -15 callsubr
          -65 hlineto
          121 callgsubr
          endchar
        </CharString>
        <CharString name="brokenbar">
          -340 -178 876 hstem
          78 72 vstem
          150 367 rmoveto
          331 -72 -331 vlineto
          72 -545 rmoveto
          331 -72 -331 vlineto
          endchar
        </CharString>
        <CharString name="bullet">
          -119 223 266 hstem
          92 265 vstem
          92 356 rmoveto
          -75 56 -58 77 74 58 58 75 75 -58 58 -75 -76 -56 -58 -75 vhcurveto
          endchar
        </CharString>
        <CharString name="c">
          335 callgsubr
          hstem
          43 82 vstem
          125 251 rmoveto
          101 callgsubr
          75 vlineto
          -68 callsubr
          endchar
        </CharString>
        <CharString name="cacute">
          335 callgsubr
          43 156 hstem
          43 82 vstem
          259 559 -25 callgsubr
          -233 -464 rmoveto
          101 callgsubr
          75 vlineto
          -68 callsubr
          endchar
        </CharString>
        <CharString name="caron">
          275 callsubr
          45 330 vstem
          248 642 -21 callsubr
        </CharString>
        <CharString name="ccaron">
          335 callgsubr
          44 156 hstem
          43 82 vstem
          422 488 rmoveto
          -68 callsubr
          101 callgsubr
          -109 147 -21 callsubr
        </CharString>
        <CharString name="ccedilla">
          -97 -252 58 183 71 384 72 hstem
          43 82 148 66 vstem
          125 251 rmoveto
          101 callgsubr
          75 vlineto
          -68 callsubr
          214 -373 12 callgsubr
        </CharString>
        <CharString name="ccircumflex">
          335 callgsubr
          44 156 hstem
          43 82 vstem
          422 488 rmoveto
          -68 callsubr
          101 callgsubr
          -191 303 -35 callgsubr
          endchar
        </CharString>
        <CharString name="cdotaccent">
          335 callgsubr
          71 103 hstem
          43 82 123 103 vstem
          125 251 rmoveto
          101 callgsubr
          75 vlineto
          -68 callsubr
          123 388 rmoveto
          269 callgsubr
        </CharString>
        <CharString name="cedilla">
          -147 -252 58 hstem
          219 66 vstem
          285 -122 12 callgsubr
        </CharString>
        <CharString name="cent">
          -116 -111 175 -71 71 -50 -21 23 -21 446 174 hstemhm
          46 81 138 69 hintmask 00011110
          412 490 rmoveto
          -28 13 -26 6 -24 3 rrcurveto
          103 -69 -105 vlineto
          -142 -20 -77 -115 -123 vvcurveto
          -128 78 -111 141 -18 vhcurveto
          hintmask 10001110
          -106 69 vlineto
          hintmask 00101110
          104 vlineto
          26 3 27 6 25 12 rrcurveto
          hintmask 01001110
          74 vlineto
          -16 -28 -36 -8 -30 hhcurveto
          -126 -64 85 102 -1 hvcurveto
          105 1 71 85 119 hhcurveto
          30 34 -9 -16 30 hvcurveto
          endchar
        </CharString>
        <CharString name="circumflex">
          275 callsubr
          45 330 vstem
          172 798 -35 callgsubr
          endchar
        </CharString>
        <CharString name="colon">
          -333 -1 117 206 116 hstem
          59 117 vstem
          59 380 rmoveto
          -34 25 -24 33 33 26 24 34 32 -26 26 -33 -33 -25 -26 -32 vhcurveto
          -323 vmoveto
          -33 25 -25 33 33 26 25 33 33 -26 26 -33 -33 -25 -26 -33 vhcurveto
          endchar
        </CharString>
        <CharString name="comma">
          -343 -123 224 hstem
          -8 198 vstem
          -8 -123 384 callgsubr
        </CharString>
        <CharString name="commaaccent">
          -151 297 callsubr
          hstem
          115 176 vstem
          115 -243 431 callsubr
          endchar
        </CharString>
        <CharString name="copyright">
          208 -9 66 90 61 254 62 92 66 hstem
          43 67 113 70 375 65 vstem
          43 336 rmoveto
          -188 156 -157 189 189 156 157 188 189 -156 157 -189 -189 -156 -157 -189 vhcurveto
          67 hmoveto
          154 125 126 154 154 125 -126 -154 -154 -125 -125 -154 -154 -125 125 154 vhcurveto
          183 -2 rmoveto
          76 51 52 73 23 32 -8 -15 23 vhcurveto
          65 vlineto
          15 -27 -34 5 -22 hhcurveto
          -121 -67 -92 -97 -1 hvcurveto
          -101 70 -87 118 28 36 8 13 20 vhcurveto
          65 vlineto
          -14 -18 -32 -11 -28 hhcurveto
          -75 -48 55 71 -1 hvcurveto
          endchar
        </CharString>
        <CharString name="currency">
          -25 98 65 299 65 hstem
          55 68 297 69 vstem
          55 309 rmoveto
          -48 13 -43 25 -35 vhcurveto
          -59 -58 51 -49 58 58 rlineto
          -23 34 43 -13 49 hhcurveto
          48 44 14 25 36 hvcurveto
          62 -61 50 49 -62 61 rlineto
          26 36 16 44 49 vvcurveto
          48 -15 43 -23 34 vhcurveto
          58 58 -50 49 -58 -57 rlineto
          23 -35 -43 14 -48 hhcurveto
          -49 -45 -15 -26 -36 hvcurveto
          -60 61 -51 -49 61 -61 rlineto
          -25 -35 -15 -45 -48 vvcurveto
          68 4 rmoveto
          85 62 64 87 86 62 -65 -85 -86 -62 -63 -86 -87 -62 64 86 vhcurveto
          endchar
        </CharString>
        <CharString name="d">
          -1 332 callgsubr
          hstemhm
          43 82 290 79 hintmask 10111000
          86 callsubr
          149 643 rmoveto
          -277 vlineto
          87 callgsubr
          hintmask 01111000
          -75 79 707 vlineto
          endchar
        </CharString>
        <CharString name="dagger">
          -45 21 -21 434 69 hstem
          222 72 vstem
          482 503 rmoveto
          374 callsubr
          -434 72 434 188 hlineto
          endchar
        </CharString>
        <CharString name="daggerdbl">
          -38 21 -21 181 69 184 69 hstem
          225 72 vstem
          485 434 rmoveto
          69 374 callsubr
          -184 -180 -69 180 -181 72 181 188 69 -188 184 vlineto
          endchar
        </CharString>
        <CharString name="dcaron">
          92 332 callgsubr
          0 192 hstemhm
          43 82 290 79 hintmask 10101100
          86 callsubr
          149 366 rmoveto
          87 callgsubr
          hintmask 01011100
          -75 79 707 -79 vlineto
          221 hmoveto
          -84 -192 rlineto
          65 hlineto
          111 192 rlineto
          endchar
        </CharString>
        <CharString name="dcroat">
          -1 332 callgsubr
          72 55 hstemhm
          43 82 290 79 hintmask 10111100
          86 callsubr
          299 578 rmoveto
          -71 65 -79 -65 -193 -55 193 -157 hlineto
          87 callgsubr
          hintmask 01111100
          -75 79 587 71 vlineto
          endchar
        </CharString>
        <CharString name="degree">
          -213 386 59 173 58 hstem
          30 63 168 64 vstem
          30 530 rmoveto
          -85 61 -59 85 84 65 62 85 84 -62 59 -84 -85 -64 -62 -84 vhcurveto
          63 1 rmoveto
          48 35 39 48 48 37 -39 -48 -48 -34 -38 -48 -48 -38 38 48 vhcurveto
          endchar
        </CharString>
        <CharString name="dieresis">
          -147 671 103 hstem
          58 103 99 103 vstem
          58 723 -63 callsubr
          endchar
        </CharString>
        <CharString name="divide">
          -15 223 105 vstem
          223 518 rmoveto
          -28 24 -24 29 28 24 24 28 29 -24 24 -28 -29 -24 -24 -29 vhcurveto
          -166 -214 rmoveto
          440 72 -440 hlineto
          166 -214 rmoveto
          -29 24 -24 29 28 24 24 29 28 -24 24 -28 -29 -24 -24 -28 vhcurveto
          endchar
        </CharString>
        <CharString name="dollar">
          -63 -109 177 -74 74 -73 73 536 75 -30 -20 hstemhm
          53 86 56 69 -18 69 55 84 hintmask 0100110110000000
          417 649 rmoveto
          hintmask 0101010110000000
          -30 15 -36 9 -36 4 rrcurveto
          106 -69 -104 vlineto
          -108 -8 -85 -64 -110 vvcurveto
          -107 80 -43 79 -35 vhcurveto
          81 -35 77 -27 -73 vvcurveto
          -71 -53 -38 -83 -66 -68 22 33 -44 vhcurveto
          hintmask 0010111010000000
          -87 vlineto
          38 -22 50 -14 51 -5 rrcurveto
          hintmask 1000111010000000
          -104 69 vlineto
          hintmask 0101011010000000
          103 vlineto
          109 9 81 63 113 vvcurveto
          110 -84 43 -82 36 vhcurveto
          -76 33 -73 28 72 vvcurveto
          61 50 42 83 51 59 -17 -23 35 vhcurveto
          endchar
        </CharString>
        <CharString name="dotaccent">
          -147 672 103 hstem
          159 103 vstem
          159 724 rmoveto
          269 callgsubr
        </CharString>
        <CharString name="dotlessi">
          398 callgsubr
          hstem
          77 79 vstem
          420 callgsubr
          endchar
        </CharString>
        <CharString name="dvMatraAA_Candrabindu">
          62 callsubr
          97 62 99 103 hstemhm
          -44 77 52 104 -95 78 66 78 hintmask 11101011
          136 739 rmoveto
          94 86 52 105 hvcurveto
          -78 hlineto
          -53 -36 -42 -66 -66 -37 42 389 callsubr
          84 -49 96 vhcurveto
          hintmask 11111101
          -51 212 rmoveto
          -30 22 405 callsubr
          -22 -23 -29 vhcurveto
          hintmask 11101011
          -107 -376 211 callsubr
          endchar
        </CharString>
        <CharString name="dvMatraAI_Candrabindu">
          635 23 57 69 -68 62 54 67 -23 103 hstemhm
          -122 77 52 104 49 78 hintmask 10101111
          58 876 rmoveto
          30 23 22 29 29 -23 23 -30 -29 -22 -23 -29 -29 22 -22 29 hvcurveto
          hintmask 11010111
          -480 -51 rmoveto
          9 callgsubr
          -109 169 rlineto
          64 -41 -53 31 -74 hhcurveto
          -28 -30 -5 -1 -3 hvcurveto
          hintmask 10110111
          582 -21 rmoveto
          -53 -36 -41 -66 -66 -37 41 389 callsubr
          84 -48 96 94 86 51 105 vhcurveto
          endchar
        </CharString>
        <CharString name="dvMatraE_Candrabindu">
          716 62 41 68 -11 103 hstemhm
          -124 77 53 103 50 77 hintmask 11011100
          -406 813 rmoveto
          1 5 22 5 23 hhcurveto
          41 25 -14 -38 25 98 callgsubr
          462 -165 rmoveto
          94 86 51 105 hvcurveto
          -77 hlineto
          -53 -37 -41 -66 -66 -37 41 389 callsubr
          84 -48 96 vhcurveto
          hintmask 10111100
          -50 211 rmoveto
          -29 21 -22 30 29 23 22 29 29 -23 23 -29 -30 -21 -23 -29 vhcurveto
          endchar
        </CharString>
        <CharString name="dvSHA_MatraVocalicR">
          99 -216 64 727 67 -59 65 hstemhm
          80 79 175 79 -30 77 43 79 hintmask 10111010
          245 583 rmoveto
          55 34 -42 -51 -49 -35 -45 -38 -26 hvcurveto
          -74 40 -28 44 44 vvcurveto
          46 33 39 53 vhcurveto
          hintmask 11011010
          337 -8 rmoveto
          107 67 -186 -355 hlineto
          -68 16 -57 16 -45 18 rrcurveto
          44 36 36 53 67 vvcurveto
          hintmask 10111010
          82 -66 73 -105 -102 -60 -75 -74 -64 33 -59 83 -51 vhcurveto
          -194 -115 62 -48 205 125 60 -27 78 -24 96 -22 rlinecurve
          -162 vlineto
          hintmask 11010110
          -71 -17 -49 -49 -64 vvcurveto
          -95 78 -43 94 40 44 9 14 27 vhcurveto
          66 vlineto
          -15 -27 -38 -10 -42 hhcurveto
          -64 -35 30 43 48 40 35 82 3 hvcurveto
          endchar
        </CharString>
        <CharString name="e">
          79 callsubr
          hstem
          43 81 272 79 vstem
          396 286 -101 callgsubr
        </CharString>
        <CharString name="eacute">
          74 callsubr
          444 716 59 callgsubr
          76 -274 -101 callgsubr
        </CharString>
        <CharString name="ebreve">
          79 callsubr
          44 57 hstemhm
          43 81 -14 397 callsubr
          -43 79 hintmask 11110110
          374 716 rmoveto
          121 callgsubr
          -65 hlineto
          -15 callsubr
          hintmask 11111001
          -43 -430 -101 callgsubr
        </CharString>
        <CharString name="ecaron">
          74 callsubr
          312 560 -78 callsubr
          160 -274 -101 callgsubr
        </CharString>
        <CharString name="ecircumflex">
          74 callsubr
          281 665 rmoveto
          -42 callgsubr
          200 -274 -101 callgsubr
        </CharString>
        <CharString name="edieresis">
          79 callsubr
          74 103 hstemhm
          43 81 5 103 99 103 -38 79 hintmask 11110110
          382 587 -47 callgsubr
          hintmask 11101001
          215 -301 -101 callgsubr
        </CharString>
        <CharString name="edotaccent">
          79 callsubr
          74 103 hstem
          43 81 106 103 63 79 vstem
          282 587 rmoveto
          -79 callgsubr
          -29 22 -23 30 hvcurveto
          114 -301 -101 callgsubr
        </CharString>
        <CharString name="egrave">
          74 callsubr
          318 560 rmoveto
          -98 156 rlineto
          53 callgsubr
          147 -274 -101 callgsubr
        </CharString>
        <CharString name="eight">
          -32 -8 70 228 73 228 70 hstemhm
          51 80 -69 80 247 80 -65 81 hintmask 11110010
          265 62 rmoveto
          -90 -44 50 57 62 39 58 95 1 hvcurveto
          99 1 40 -56 -58 vvcurveto
          -60 -44 -55 -95 vhcurveto
          hintmask 11101100
          -1 529 rmoveto
          85 40 -52 -60 -76 -53 -40 -68 -69 -57 35 80 60 44 53 78 hvcurveto
          hintmask 11101010
          100 -263 rmoveto
          hintmask 11101100
          65 26 40 53 69 vvcurveto
          127 -101 58 -104 -102 -100 -62 -122 -73 41 -53 66 -25 vhcurveto
          hintmask 11110010
          -71 -25 -47 -55 -81 vvcurveto
          -108 95 -65 118 123 98 68 110 vhcurveto
          hintmask 11101010
          86 -49 50 -72 22 vhcurveto
          endchar
        </CharString>
        <CharString name="ellipsis">
          152 -8 118 hstem
          36 118 147 118 147 118 cntrmask 01110000
          36 51 rmoveto
          28 callgsubr
          265 hmoveto
          28 callgsubr
          265 hmoveto
          28 callgsubr
          endchar
        </CharString>
        <CharString name="emacron">
          79 callsubr
          97 56 hstem
          43 81 272 79 vstem
          417 666 273 callsubr
          -21 -324 -101 callgsubr
        </CharString>
        <CharString name="emdash">
          255 239 66 hstem
          57 709 vstem
          57 239 rmoveto
          709 66 -709 hlineto
          endchar
        </CharString>
        <CharString name="endash">
          -28 237 66 hstem
          57 426 vstem
          57 237 rmoveto
          426 66 -426 hlineto
          endchar
        </CharString>
        <CharString name="eng">
          -28 -195 69 147 -21 443 71 hstem
          73 78 243 80 vstem
          473 241 rmoveto
          108 vlineto
          100 -63 65 -99 -73 -57 -32 -63 -30 vhcurveto
          88 -78 -507 78 277 vlineto
          109 69 57 71 59 44 -38 -77 vhcurveto
          -328 1 -53 vlineto
          -53 -22 -20 -34 -21 -23 6 10 -23 vhcurveto
          -70 vlineto
          -10 25 20 -5 26 hhcurveto
          83 48 52 88 hvcurveto
          296 vlineto
          endchar
        </CharString>
        <CharString name="eogonek">
          -46 -238 58 199 -21 222 66 158 69 hstem
          43 81 61 68 143 79 vstem
          396 286 rmoveto
          -272 hlineto
          105 10 61 53 73 hhcurveto
          80 48 -54 -84 hvcurveto
          -10 -464 rmoveto
          -12 -16 -28 -10 -24 hhcurveto
          -39 -26 20 39 49 48 42 57 30 hvcurveto
          31 5 31 9 23 12 rrcurveto
          74 vlineto
          -24 -35 -56 -11 -45 hhcurveto
          -102 -69 53 102 -12 hvcurveto
          346 hlineto
          3 16 2 30 13 vvcurveto
          153 -84 81 -123 -129 -96 -96 -165 -139 83 -97 129 -18 vhcurveto
          -39 -32 -31 -43 -51 vvcurveto
          -62 42 -48 80 29 28 6 13 22 vhcurveto
          endchar
        </CharString>
        <CharString name="equal">
          -15 205 69 133 68 hstem
          57 440 vstem
          57 407 418 callgsubr
          -270 vmoveto
          440 69 -440 hlineto
          endchar
        </CharString>
        <CharString name="eth">
          -51 -9 73 271 73 hstem
          38 82 276 75 vstem
          251 64 rmoveto
          -75 -56 51 85 88 56 47 69 65 51 -33 -46 35 hvcurveto
          -140 -4 -67 -52 -74 hhcurveto
          201 549 rmoveto
          61 vlineto
          -122 -62 -24 25 -26 21 -25 16 rlinecurve
          -124 hlineto
          42 -22 47 -32 43 -43 -102 -52 rcurveline
          -61 vlineto
          140 72 42 -53 34 -65 13 -78 rlinecurve
          43 -37 -54 25 -60 hhcurveto
          -104 -97 -72 -134 -112 82 -99 131 133 87 93 185 121 -45 103 -59 76 hvcurveto
          endchar
        </CharString>
        <CharString name="exclam">
          -317 -8 118 hstemhm
          65 119 -97 77 hintmask 10100000
          87 204 rmoveto
          77 470 -77 hlineto
          hintmask 11000000
          -22 -623 rmoveto
          -34 25 -25 34 34 26 25 34 32 -26 27 -34 -34 -25 -27 -32 vhcurveto
          endchar
        </CharString>
        <CharString name="exclamdown">
          -317 399 118 hstemhm
          65 119 -97 77 hintmask 11000000
          65 458 rmoveto
          -32 25 -27 34 34 26 27 32 34 -26 25 -34 -34 -25 -25 -34 vhcurveto
          hintmask 10100000
          22 -623 rmoveto
          77 470 -77 hlineto
          endchar
        </CharString>
        <CharString name="f">
          -239 120 callsubr
          vstem
          315 707 rmoveto
          4 -14 -22 3 -13 hhcurveto
          -95 150 callsubr
          112 64 -112 352 callgsubr
        </CharString>
        <CharString name="ff">
          10 21 -21 443 64 136 71 hstem
          117 171 callsubr
          198 153 rmoveto
          4 -15 -21 3 -13 hhcurveto
          -42 -35 -13 -22 -25 hvcurveto
          19 -35 -55 16 -49 hhcurveto
          -103 150 callsubr
          170 307 callgsubr
          111 64 -111 352 callgsubr
        </CharString>
        <CharString name="ffi">
          217 120 callsubr
          170 171 callsubr
          328 -47 287 callgsubr
          -41 -45 14 -53 hhcurveto
          -44 -36 -13 -22 -25 hvcurveto
          18 -36 -55 17 -49 hhcurveto
          -103 150 callsubr
          170 307 callgsubr
          170 -443 79 vlineto
          endchar
        </CharString>
        <CharString name="ffl">
          192 120 callsubr
          171 79 162 79 vstem
          367 507 rmoveto
          -171 46 hlineto
          66 33 24 48 38 33 -9 -13 29 vhcurveto
          -7 -20 -3 -22 -25 vvcurveto
          -250 -47 rmoveto
          -87 -64 87 307 callgsubr
          171 307 callgsubr
          111 64 -111 46 hlineto
          72 37 18 45 27 27 -6 -10 26 vhcurveto
          -627 79 665 vlineto
          26 -45 -60 23 -63 hhcurveto
          -44 -35 -13 -22 -26 hvcurveto
          18 -36 -55 17 -49 hhcurveto
          -103 -54 -63 -97 hvcurveto
          endchar
        </CharString>
        <CharString name="fi">
          -54 120 callsubr
          170 79 vstem
          445 507 287 callgsubr
          -40 -45 14 -54 hhcurveto
          -99 150 callsubr
          170 -443 79 vlineto
          endchar
        </CharString>
        <CharString name="five">
          -59 -8 74 261 72 186 69 hstem
          91 78 213 82 vstem
          169 48 callsubr
        </CharString>
        <CharString name="fl">
          -58 120 callsubr
          163 78 vstem
          117 507 rmoveto
          -87 -64 87 307 callgsubr
          112 64 -112 46 hlineto
          72 37 18 45 27 28 -6 -10 26 vhcurveto
          -627 78 665 vlineto
          26 -44 -61 23 -63 hhcurveto
          -98 -54 -62 -98 hvcurveto
          endchar
        </CharString>
        <CharString name="florin">
          -176 -257 71 493 64 239 71 hstem
          -66 479 vstem
          162 371 rmoveto
          -108 -64 97 hlineto
          -65 -379 rlineto
          -75 -14 -27 -39 -51 hhcurveto
          -24 -19 4 7 -17 hvcurveto
          -72 vlineto
          -6 16 31 -4 21 hhcurveto
          96 46 65 112 19 hvcurveto
          67 387 rlineto
          110 64 -99 hlineto
          22 125 rlineto
          75 13 28 39 52 hhcurveto
          22 19 -4 -6 16 hvcurveto
          72 vlineto
          6 -17 -30 3 -19 hhcurveto
          -96 -47 -65 -112 -19 hvcurveto
          endchar
        </CharString>
        <CharString name="four">
          -28 21 -21 159 69 379 47 hstem
          341 78 vstem
          122 130 callgsubr
        </CharString>
        <CharString name="foursuperior">
          -185 490 54 227 51 hstem
          230 59 vstem
          96 544 rmoveto
          134 227 rlineto
          -227 vlineto
          122 hmoveto
          -63 278 -90 hlineto
          -164 -278 rlineto
          -54 195 -98 59 98 63 vlineto
          endchar
        </CharString>
        <CharString name="fraction">
          -257 149 413 hstem
          20 297 vstem
          20 353 callgsubr
        </CharString>
        <CharString name="g">
          166 callsubr
          411 callsubr
          263 83 -91 callsubr
        </CharString>
        <CharString name="gbreve">
          166 callsubr
          43 57 hstemhm
          44 82 1 397 callsubr
          -53 79 hintmask 11110110
          391 716 rmoveto
          121 callgsubr
          -65 hlineto
          -15 callsubr
          hintmask 11111001
          -193 -633 -91 callsubr
        </CharString>
        <CharString name="gcircumflex">
          166 callsubr
          46 156 411 callsubr
          277 665 rmoveto
          -42 callgsubr
          71 -477 -91 callsubr
        </CharString>
        <CharString name="gdotaccent">
          166 callsubr
          73 103 hstem
          44 82 127 103 47 79 vstem
          305 587 rmoveto
          -79 callgsubr
          -29 22 -23 30 hvcurveto
          -42 -504 -91 callsubr
        </CharString>
        <CharString name="germandbls">
          -27 -7 69 -41 -21 617 73 hstemhm
          76 79 129 84 -3 80 -11 78 hintmask 10111010
          258 6 rmoveto
          -11 26 29 -2 31 hhcurveto
          108 60 62 82 hvcurveto
          131 -144 23 67 51 77 25 102 vvcurveto
          hintmask 01110100
          83 -67 71 -109 -113 -80 -61 -133 vhcurveto
          -496 79 498 vlineto
          82 40 37 72 59 39 -33 -50 vhcurveto
          -78 -81 -22 -82 vvcurveto
          hintmask 10111010
          -107 150 -20 -92 vvcurveto
          -42 -35 -29 -56 -34 -22 5 15 -29 vhcurveto
          endchar
        </CharString>
        <CharString name="grave">
          275 callsubr
          115 193 vstem
          210 798 rmoveto
          53 callgsubr
          69 hlineto
          endchar
        </CharString>
        <CharString name="greater">
          -41 114 453 hstem
          49 421 vstem
          470 379 rmoveto
          -421 188 rlineto
          -81 vlineto
          0 263 -109 74 -35 vhcurveto
          -75 -38 -262 -108 0 vvcurveto
          -82 vlineto
          421 189 rlineto
          endchar
        </CharString>
        <CharString name="greaterequal">
          -20 120 68 hstem
          465 32 vstem
          57 120 418 callgsubr
          371 vmoveto
          -74 vlineto
          408 -81 -408 -82 rlineto
          -73 vlineto
          440 97 rlineto
          94 callsubr
        </CharString>
        <CharString name="guillemotleft">
          -88 91 324 hstem
          27 423 vstem
          264 415 268 callsubr
          332 162 268 callsubr
          endchar
        </CharString>
        <CharString name="guillemotright">
          -86 91 324 hstem
          29 424 vstem
          116 415 266 callsubr
          35 162 266 callsubr
          endchar
        </CharString>
        <CharString name="guilsinglleft">
          -269 91 324 hstem
          29 238 vstem
          267 415 rmoveto
          -87 hlineto
          -151 -162 151 -162 rlineto
          87 hlineto
          -147 162 rlineto
          endchar
        </CharString>
        <CharString name="guilsinglright">
          -271 91 324 hstem
          32 238 vstem
          120 415 rmoveto
          -88 hlineto
          147 -162 -147 -162 rlineto
          88 hlineto
          150 162 rlineto
          endchar
        </CharString>
        <CharString name="h">
          -28 21 -21 443 71 331 callgsubr
          151 707 rmoveto
          -78 -707 49 callgsubr
        </CharString>
        <CharString name="hbar">
          -28 21 -21 443 71 73 55 331 callgsubr
          151 587 rmoveto
          186 55 -186 65 -78 -65 -72 -55 72 -587 49 callgsubr
        </CharString>
        <CharString name="hcircumflex">
          -28 21 -21 443 71 246 156 331 callgsubr
          199 760 rmoveto
          80 hlineto
          -127 156 rlineto
          -76 hlineto
          -24 callgsubr
          85 105 rlineto
          37 -158 rmoveto
          -78 -707 49 callgsubr
        </CharString>
        <CharString name="hungarumlaut">
          275 callsubr
          35 351 vstem
          191 642 92 callgsubr
          endchar
        </CharString>
        <CharString name="hyphen">
          240 callgsubr
        </CharString>
        <CharString name="i">
          398 callgsubr
          615 103 hstemhm
          65 103 -91 79 322 callsubr
          hintmask 11100000
          -12 159 83 callgsubr
          endchar
        </CharString>
        <CharString name="iacute">
          398 callgsubr
          560 156 hstem
          77 79 vstem
          420 callgsubr
          11 53 134 callsubr
        </CharString>
        <CharString name="ibreve">
          398 callgsubr
          557 57 hstem
          -48 65 60 79 60 65 vstem
          -48 716 rmoveto
          -15 callsubr
          -65 hlineto
          121 callgsubr
          60 436 callsubr
        </CharString>
        <CharString name="icircumflex">
          398 callgsubr
          560 156 hstem
          77 79 vstem
          79 716 -35 callgsubr
          -78 436 callsubr
        </CharString>
        <CharString name="idieresis">
          398 callgsubr
          588 103 hstemhm
          -36 103 10 79 10 103 322 callsubr
          hintmask 11111000
          -113 133 -63 callsubr
          endchar
        </CharString>
        <CharString name="igrave">
          398 callgsubr
          559 156 hstem
          77 79 vstem
          420 callgsubr
          -30 208 rmoveto
          53 callgsubr
          69 hlineto
          endchar
        </CharString>
        <CharString name="ij">
          -113 -195 69 147 -21 615 103 hstemhm
          62 103 -91 79 138 103 -90 78 hintmask 11101010
          74 395 callsubr
          hintmask 11110010
          -12 159 83 callgsubr
          118 -846 20 callsubr
          hintmask 11101100
          111 776 83 callgsubr
          endchar
        </CharString>
        <CharString name="imacron">
          398 callgsubr
          610 56 hstem
          77 79 vstem
          420 callgsubr
          181 103 253 callgsubr
          endchar
        </CharString>
        <CharString name="infinity">
          267 181 65 201 65 hstem
          49 74 588 75 vstem
          123 348 rmoveto
          56 36 42 67 62 45 -53 -47 36 vhcurveto
          -45 -32 -49 -55 -61 hhcurveto
          -67 -37 47 55 hvcurveto
          293 -51 rmoveto
          -64 51 54 -52 89 hhcurveto
          109 67 73 97 95 -62 66 -110 -88 -59 -55 -64 -49 hvcurveto
          65 -51 -56 53 -86 hhcurveto
          -110 -66 -71 -96 -97 60 -66 110 89 59 56 60 49 hvcurveto
          295 50 rmoveto
          -58 -35 -41 -67 -63 -40 46 51 -40 vhcurveto
          46 31 46 56 64 hhcurveto
          67 37 -47 -53 hvcurveto
          endchar
        </CharString>
        <CharString name="iogonek">
          -335 -242 58 205 -21 615 103 hstemhm
          -25 68 22 103 -91 79 hintmask 11111000
          116 615 rmoveto
          29 23 22 29 29 -23 23 -29 -29 -22 -23 -29 -29 22 -22 29 hvcurveto
          hintmask 11110100
          40 -108 rmoveto
          -79 -491 hlineto
          -54 -32 -48 -52 -64 16 callgsubr
          51 52 44 61 30 hvcurveto
          endchar
        </CharString>
        <CharString name="itfLogo">
          1098 21 -21 227 187 40 188 hstem
          147 198 41 198 41 198 41 198 41 198 40 199 vstem
          147 hmoveto
          415 callgsubr
          239 -188 rmoveto
          198 188 -198 hlineto
          239 -642 rmoveto
          415 callgsubr
          239 -188 rmoveto
          198 188 -198 hlineto
          239 -642 rmoveto
          415 callgsubr
          238 -188 rmoveto
          199 188 -199 hlineto
          -415 vmoveto
          199 187 -199 hlineto
          endchar
        </CharString>
        <CharString name="itfStar">
          97 64 634 hstem
          0 668 vstem
          668 456 rmoveto
          -28 -203 -6 -2 -35 hvcurveto
          -67 250 -8 -28 -54 -190 -8 -32 rlinecurve
          -265 8 26 -15 170 -110 29 -17 rlinecurve
          -98 -250 24 20 155 130 29 20 rlinecurve
          207 -170 -11 28 -72 192 -12 30 rlinecurve
          endchar
        </CharString>
        <CharString name="itilde">
          398 callgsubr
          586 399 callgsubr
          77 79 322 callsubr
          160 182 102 callgsubr
          hintmask 10110000
          -62 callsubr
          hintmask 11010000
          165 callsubr
        </CharString>
        <CharString name="j">
          -340 -195 69 741 103 hstemhm
          65 103 -90 78 hintmask 11010000
          -46 -180 20 callsubr
          hintmask 11100000
          111 776 83 callgsubr
          endchar
        </CharString>
        <CharString name="jcircumflex">
          -340 -195 69 686 156 hstem
          78 78 vstem
          80 716 -35 callgsubr
          -202 -896 20 callsubr
          endchar
        </CharString>
        <CharString name="k">
          -88 21 -21 hstem
          73 78 vstem
          73 hmoveto
          78 703 -78 hlineto
          181 -437 126 callgsubr
        </CharString>
        <CharString name="kgreenlandic">
          -88 21 -21 hstem
          73 78 vstem
          73 hmoveto
          78 507 -78 hlineto
          181 -241 126 callgsubr
        </CharString>
        <CharString name="l">
          398 callgsubr
          200 callgsubr
          707 -79 hlineto
          endchar
        </CharString>
        <CharString name="lacute">
          398 callgsubr
          760 156 hstem
          77 79 vstem
          84 760 -25 callgsubr
          -106 -916 rmoveto
          79 707 -79 hlineto
          endchar
        </CharString>
        <CharString name="lcaron">
          -309 21 -21 515 192 200 callgsubr
          707 -79 hlineto
          146 -192 431 callsubr
          endchar
        </CharString>
        <CharString name="ldot">
          -185 21 -21 305 114 hstem
          73 78 90 115 vstem
          73 hmoveto
          78 707 -78 hlineto
          168 -345 rmoveto
          -33 24 -24 33 33 25 24 33 31 -25 26 -33 -33 -24 -26 -31 vhcurveto
          endchar
        </CharString>
        <CharString name="less">
          -41 114 453 hstem
          57 421 vstem
          57 303 rmoveto
          421 -189 rlineto
          82 vlineto
          0 -262 108 -76 38 vhcurveto
          74 35 264 109 0 vvcurveto
          81 vlineto
          -421 -188 rlineto
          endchar
        </CharString>
        <CharString name="lessequal">
          -20 120 68 hstem
          52 33 vstem
          52 120 418 callgsubr
          440 371 rmoveto
          -440 -98 rlineto
          -115 vlineto
          440 -97 rlineto
          73 vlineto
          -407 82 407 81 rlineto
          endchar
        </CharString>
        <CharString name="logicalnot">
          -19 342 71 hstem
          439 73 vstem
          512 160 rmoveto
          253 -487 -71 414 -182 vlineto
          endchar
        </CharString>
        <CharString name="longs">
          -327 21 -21 698 70 hstem
          74 78 vstem
          271 762 rmoveto
          4 -14 -22 2 -12 hhcurveto
          -96 -53 -62 -98 hvcurveto
          -608 78 608 vlineto
          65 35 25 38 16 16 -3 -6 14 vhcurveto
          endchar
        </CharString>
        <CharString name="lozenge">
          -4 21 -21 608 66 hstem
          52 460 vstem
          380 253 rmoveto
          -68 -124 -31 -63 0 vvcurveto
          0 -31 62 -66 125 vhcurveto
          -44 84 44 84 rlineto
          66 125 31 62 0 vvcurveto
          0 31 -63 68 -124 vhcurveto
          44 -84 rlineto
          -96 337 rmoveto
          -96 hlineto
          -180 -337 180 -337 rlineto
          96 hlineto
          184 337 rlineto
          endchar
        </CharString>
        <CharString name="lslash">
          -277 21 -21 hstem
          101 79 vstem
          261 495 rmoveto
          -81 -58 rlineto
          270 -79 -326 vlineto
          -68 -48 rlineto
          -77 vlineto
          68 48 rlineto
          -304 79 360 vlineto
          81 57 rlineto
          endchar
        </CharString>
        <CharString name="m">
          250 21 -21 443 71 hstem
          73 78 221 79 221 79 vstem
          151 507 rmoveto
          -78 -507 78 277 hlineto
          113 67 53 57 67 30 -41 -74 vhcurveto
          -328 79 277 vlineto
          113 67 53 57 66 31 -41 -74 vhcurveto
          -328 79 348 vlineto
          97 -49 69 -110 -63 -57 -33 -66 -30 vhcurveto
          61 -19 -47 38 -82 hhcurveto
          -64 -51 -30 -59 -28 hvcurveto
          endchar
        </CharString>
        <CharString name="macron">
          239 callgsubr
        </CharString>
        <CharString name="minus">
          -15 304 72 hstem
          57 440 vstem
          57 304 rmoveto
          440 72 -440 hlineto
          endchar
        </CharString>
        <CharString name="multiply">
          -77 159 367 hstem
          59 372 vstem
          431 475 rmoveto
          -51 51 -135 -134 -135 133 -51 -50 135 -134 -131 -130 51 -52 131 131 132 -131 51 51 -132 131 rlineto
          endchar
        </CharString>
        <CharString name="n">
          -28 21 -21 443 71 331 callgsubr
          151 507 -40 callgsubr
        </CharString>
        <CharString name="nacute">
          -28 21 -21 443 71 46 156 331 callgsubr
          459 716 59 callgsubr
          -184 -53 -40 callgsubr
        </CharString>
        <CharString name="napostrophe">
          8 21 -21 443 71 -23 204 hstemhm
          110 78 243 79 hintmask 10111000
          54 695 rmoveto
          -76 -204 rlineto
          56 hlineto
          109 204 rlineto
          45 -188 rmoveto
          -78 -507 78 277 hlineto
          hintmask 11011000
          109 69 57 71 59 44 -38 -77 vhcurveto
          -328 79 349 vlineto
          100 -63 65 -99 -73 -57 -32 -63 -30 vhcurveto
          endchar
        </CharString>
        <CharString name="ncaron">
          -28 21 -21 443 71 46 156 331 callgsubr
          325 560 -78 callsubr
          -98 -53 -40 callgsubr
        </CharString>
        <CharString name="nine">
          -64 -8 74 168 70 285 73 hstem
          36 82 266 78 vstem
          384 368 rmoveto
          -37 -29 -43 -27 -60 hhcurveto
          -81 -53 50 93 88 49 54 76 106 35 -102 -114 hvcurveto
          -320 -362 rmoveto
          -12 35 36 -7 42 hhcurveto
          195 90 152 229 155 -66 134 -155 -130 -75 -95 -120 -133 94 -80 102 69 44 18 41 35 hvcurveto
          -143 -16 -62 -84 -128 hhcurveto
          -40 -36 8 15 -34 hvcurveto
          endchar
        </CharString>
        <CharString name="notequal">
          -15 205 68 134 68 hstem
          57 440 vstem
          497 407 rmoveto
          68 -132 vlineto
          39 88 rlineto
          -56 hlineto
          -39 -88 rlineto
          -252 -68 221 hlineto
          -59 -134 rlineto
          -162 -68 131 hlineto
          -39 -88 rlineto
          56 hlineto
          39 88 rlineto
          253 68 -222 hlineto
          59 134 rlineto
          endchar
        </CharString>
        <CharString name="ntilde">
          -28 21 -21 443 71 76 399 callgsubr
          279 callgsubr
          hintmask 11101100
          400 693 -30 callgsubr
          -298 -152 -40 callgsubr
        </CharString>
        <CharString name="numbersign">
          142 0 233 -63 63 206 64 hstemhm
          53 604 hintmask 01110000
          425 233 rmoveto
          -179 hlineto
          44 206 rlineto
          179 hlineto
          188 hmoveto
          64 -103 vlineto
          36 171 rlineto
          -71 hlineto
          -36 -171 rlineto
          -179 hlineto
          36 171 rlineto
          -72 hlineto
          -36 -171 rlineto
          -125 -64 111 hlineto
          -43 -206 rlineto
          -122 -63 109 hlineto
          hintmask 10110000
          -36 -170 rlineto
          71 hlineto
          hintmask 01110000
          36 170 rlineto
          179 hlineto
          hintmask 10110000
          -36 -170 rlineto
          73 hlineto
          hintmask 01110000
          36 170 rlineto
          120 63 -107 hlineto
          43 206 rlineto
          endchar
        </CharString>
        <CharString name="o">
          201 callgsubr
          hstem
          43 82 312 82 vstem
          64 callsubr
          endchar
        </CharString>
        <CharString name="oacute">
          183 callgsubr
          258 560 -25 callgsubr
          -78 -725 -86 callsubr
          endchar
        </CharString>
        <CharString name="obreve">
          201 callgsubr
          43 57 hstemhm
          43 82 3 397 callsubr
          -20 82 hintmask 11101100
          128 716 rmoveto
          -15 callsubr
          -65 hlineto
          121 callgsubr
          hintmask 11110010
          86 -272 rmoveto
          114 44 -91 -102 -102 -52 -88 -106 -96 -58 89 101 102 53 91 101 hvcurveto
          -453 vmoveto
          154 86 398 callsubr
          145 -81 117 -159 -143 -93 -117 -147 -144 86 401 callgsubr
          hvcurveto
          endchar
        </CharString>
        <CharString name="ocircumflex">
          201 callgsubr
          45 156 hstem
          43 82 312 82 vstem
          279 444 rmoveto
          114 44 -91 -102 -102 -52 -88 -106 -96 -58 89 101 102 53 91 101 hvcurveto
          -453 vmoveto
          154 86 398 callsubr
          145 -81 117 -159 -143 -93 -117 -147 -144 86 401 callgsubr
          hvcurveto
          -33 724 -35 callgsubr
          endchar
        </CharString>
        <CharString name="odieresis">
          201 callgsubr
          71 103 hstemhm
          43 82 12 103 99 103 -5 82 hintmask 11111100
          137 637 -63 callsubr
          hintmask 11010010
          -60 -646 -86 callsubr
          endchar
        </CharString>
        <CharString name="oe">
          324 -9 70 -66 70 155 66 158 70 hstemhm
          43 82 294 81 271 79 hintmask 10111110
          771 286 rmoveto
          -271 hlineto
          110 11 65 48 70 hhcurveto
          72 52 -46 -90 1 hvcurveto
          -499 -247 rmoveto
          -97 -50 89 101 102 45 91 101 114 34 -91 -102 -102 -42 -88 -105 hvcurveto
          hintmask 01111110
          542 39 rmoveto
          -24 -35 -54 -11 -45 hhcurveto
          -94 -74 52 103 -12 hvcurveto
          345 hlineto
          3 16 2 26 13 vvcurveto
          153 -73 85 -131 -77 -68 -35 -66 -41 vhcurveto
          62 -36 -63 40 -90 hhcurveto
          -143 -85 -117 -147 hvcurveto
          hintmask 10111110
          -144 78 401 callgsubr
          90 65 42 66 36 vhcurveto
          hintmask 01111110
          -66 45 75 -38 90 hhcurveto
          45 59 11 20 38 hvcurveto
          endchar
        </CharString>
        <CharString name="ogonek">
          -147 -231 58 hstem
          110 68 vstem
          311 -212 rmoveto
          61 vlineto
          -12 -16 -28 -10 -24 hhcurveto
          -39 -26 20 39 51 52 44 61 30 hvcurveto
          -31 38 rlineto
          -69 -24 -81 -63 -83 vvcurveto
          -62 42 -48 80 29 28 6 13 22 vhcurveto
          endchar
        </CharString>
        <CharString name="ograve">
          183 callgsubr
          64 callsubr
          -59 272 rmoveto
          53 callgsubr
          69 hlineto
          endchar
        </CharString>
        <CharString name="ohungarumlaut">
          183 callgsubr
          349 560 92 callgsubr
          -10 -725 -86 callsubr
          endchar
        </CharString>
        <CharString name="omacron">
          201 callgsubr
          96 56 hstem
          43 82 312 82 vstem
          425 610 253 callgsubr
          136 -619 -86 callsubr
          endchar
        </CharString>
        <CharString name="one">
          -245 21 -21 hstem
          169 78 vstem
          18 263 callsubr
        </CharString>
        <CharString name="onesuperior">
          -318 392 430 hstem
          117 62 vstem
          10 690 rmoveto
          107 59 rlineto
          -357 62 430 -52 vlineto
          -117 -67 rlineto
          endchar
        </CharString>
        <CharString name="ordfeminine">
          -218 388 57 143 55 124 59 hstem
          2 69 182 67 vstem
          253 588 rmoveto
          -59 vlineto
          -44 -40 -40 -59 -55 -28 29 40 49 42 25 77 vhcurveto
          -157 142 rmoveto
          22 33 47 15 41 hhcurveto
          76 23 -40 -63 hvcurveto
          -21 -75 vlineto
          -108 -68 -48 -83 -76 54 -48 80 52 42 25 33 25 hvcurveto
          -54 65 270 vlineto
          105 -46 59 -115 -47 -50 -14 -17 -29 vhcurveto
          endchar
        </CharString>
        <CharString name="ordmasculine">
          -192 386 58 325 59 hstem
          -6 69 249 69 vstem
          186 386 rmoveto
          127 68 97 124 121 -64 100 -131 -117 -75 -100 -123 -122 69 -97 123 hvcurveto
          383 vmoveto
          94 32 -78 -85 -87 -40 -75 -85 -78 -46 75 87 85 42 78 81 hvcurveto
          endchar
        </CharString>
        <CharString name="oslash">
          -5 -9 64 395 64 hstem
          56 77 323 77 vstem
          428 375 rmoveto
          19 -35 9 -43 -46 vvcurveto
          -105 -53 -91 -110 -33 -29 10 17 -24 vhcurveto
          -44 51 rmoveto
          -20 33 -10 42 43 vvcurveto
          105 54 94 105 37 30 -9 -16 24 vhcurveto
          150 89 rmoveto
          -83 hlineto
          -26 -35 rlineto
          22 -35 -44 13 -52 hhcurveto
          -143 -94 -117 -147 -70 21 -64 38 -46 hvcurveto
          -59 -79 rlineto
          82 hlineto
          27 35 rlineto
          -22 35 43 -13 50 hhcurveto
          154 86 398 callsubr
          72 -20 64 -39 48 hvcurveto
          endchar
        </CharString>
        <CharString name="otilde">
          201 callgsubr
          76 399 callgsubr
          43 82 312 82 hintmask 11101100
          64 callsubr
          125 249 -30 callgsubr
          endchar
        </CharString>
        <CharString name="p">
          112 callsubr
          443 rmoveto
          -78 -704 159 callsubr
        </CharString>
        <CharString name="paragraph">
          -23 -148 822 hstem
          215 71 115 71 vstem
          286 674 rmoveto
          -67 hlineto
          -130 -63 -86 -83 -88 63 -76 126 hvcurveto
          -489 71 vlineto
          115 hmoveto
          71 822 -71 hlineto
          endchar
        </CharString>
        <CharString name="parenleft">
          -258 -196 903 hstem
          72 83 vstem
          320 -196 rmoveto
          -109 141 -56 161 151 vvcurveto
          156 52 152 105 142 vhcurveto
          -87 hlineto
          -93 -120 -60 -160 -166 vvcurveto
          -162 54 -160 106 -135 vhcurveto
          endchar
        </CharString>
        <CharString name="parenright">
          -258 -196 903 hstem
          155 84 vstem
          86 707 rmoveto
          -88 hlineto
          106 -142 51 -152 -156 vvcurveto
          -151 -56 -161 -109 -141 vhcurveto
          88 hlineto
          106 135 55 160 162 vvcurveto
          166 -60 160 -93 120 vhcurveto
          endchar
        </CharString>
        <CharString name="partialdiff">
          -52 -8 73 286 70 hstem
          39 82 272 77 vstem
          246 65 rmoveto
          -79 -46 62 80 89 54 55 75 63 47 -29 -43 33 hvcurveto
          -121 -2 -47 -93 -98 hhcurveto
          -105 609 rmoveto
          92 -55 115 -120 35 -134 rrcurveto
          36 -35 -47 20 -55 hhcurveto
          -104 -103 -77 -135 -113 69 -104 132 153 77 123 171 155 -114 166 -103 67 hvcurveto
          endchar
        </CharString>
        <CharString name="percent">
          279 362 callsubr
          49 69 179 69 116 68 180 68 hintmask 0111111110000000
          206 320 callgsubr
          hintmask 1011111110000000
          -87 70 305 callgsubr
          vhcurveto
          hintmask 0111111110000000
          -88 -70 -72 -87 hvcurveto
          hintmask 1011111110000000
          108 callsubr
          432 -364 rmoveto
          50 41 404 callsubr
          -41 40 49 vhcurveto
          endchar
        </CharString>
        <CharString name="period">
          -402 -8 118 hstem
          24 118 vstem
          24 51 rmoveto
          28 callgsubr
          endchar
        </CharString>
        <CharString name="periodcentered">
          -336 260 118 hstem
          57 118 vstem
          57 319 rmoveto
          28 callgsubr
          endchar
        </CharString>
        <CharString name="perthousand">
          644 362 callsubr
          45 69 179 69 116 69 179 68 72 69 179 69 hintmask 0110000100000000
          202 320 callgsubr
          hintmask 1010000110000000
          -87 70 305 callgsubr
          vhcurveto
          hintmask 0110000100000000
          -88 -70 -72 -87 hvcurveto
          hintmask 1011111111100000
          108 callsubr
          433 -364 rmoveto
          50 40 404 callsubr
          -40 40 49 vhcurveto
          319 hmoveto
          -87 71 305 callgsubr
          -88 -71 -72 -87 vhcurveto
          69 hmoveto
          50 40 40 50 49 40 -40 -50 -49 -40 -40 -49 -50 -40 40 49 vhcurveto
          endchar
        </CharString>
        <CharString name="pi">
          14 0 69 374 64 hstem
          120 79 191 79 vstem
          564 507 rmoveto
          -540 -64 96 -281 hlineto
          -76 -22 -17 -57 vhcurveto
          -69 vlineto
          94 64 36 129 hvcurveto
          278 191 307 callgsubr
          95 vlineto
          endchar
        </CharString>
        <CharString name="plus">
          -15 304 72 hstem
          236 74 vstem
          497 376 rmoveto
          -187 189 -74 -189 -179 -72 179 -189 74 189 187 hlineto
          endchar
        </CharString>
        <CharString name="plusminus">
          -15 30 70 231 69 hstem
          236 74 vstem
          57 30 rmoveto
          440 70 -440 hlineto
          253 300 rmoveto
          169 -74 -169 -179 -69 179 -169 74 169 187 69 vlineto
          endchar
        </CharString>
        <CharString name="product">
          26 -184 74 711 73 hstem
          97 81 261 81 vstem
          520 674 rmoveto
          -423 -687 hlineto
          -65 -26 -32 -56 -19 -20 5 7 -15 vhcurveto
          -75 vlineto
          -6 15 30 -5 19 hhcurveto
          89 64 49 131 hvcurveto
          605 261 -781 81 vlineto
          endchar
        </CharString>
        <CharString name="q">
          -1 -8 72 379 72 hstem
          43 82 290 79 vstem
          271 64 rmoveto
          -81 -65 65 129 112 61 73 80 69 80 -43 -147 -144 -84 -45 -60 hvcurveto
          144 443 rmoveto
          -75 vlineto
          49 -32 -50 34 -73 hhcurveto
          -140 -77 -117 -140 -154 87 -112 131 67 53 32 52 34 hvcurveto
          -273 79 704 vlineto
          endchar
        </CharString>
        <CharString name="question">
          -116 -8 118 94 166 241 71 -41 -20 hstemhm
          119 119 -97.5 77 114.5 82 hintmask 11100110
          45 561 rmoveto
          35 55 50 15 51 hhcurveto
          91 40 -51 -64 -86 -73 -40 -119 hvcurveto
          1 -166 rlineto
          76 hlineto
          1 109 rlineto
          91 8 105 55 123 vvcurveto
          117 -84 66 -125 -64 -61 -19 -22 -35 vhcurveto
          hintmask 11011010
          74 -590 rmoveto
          -34 25 -25 33 34 27 25 34 32 -27 27 -34 -33 -25 -27 -32 vhcurveto
          endchar
        </CharString>
        <CharString name="questiondown">
          -116 -173 72 240 166 94 118 hstemhm
          45 82 94 119 -98.5 77 hintmask 11110100
          414 -52 rmoveto
          -35 -55 -50 -14 -50 hhcurveto
          -92 -40 50 64 86 73 40 119 hvcurveto
          -1 166 rlineto
          -76 hlineto
          -1 -109 rlineto
          -91 -8 -105 -55 -123 vvcurveto
          -117 84 -66 125 64 61 19 22 35 vhcurveto
          hintmask 11111000
          -74 591 rmoveto
          33 -25 25 -33 -34 -27 -25 -33 -33 27 -27 34 33 25 27 33 vhcurveto
          endchar
        </CharString>
        <CharString name="quotedbl">
          -273 444 237 hstem
          44 71 66 70 432 callsubr
          137 -237 rmoveto
          70 237 -70 hlineto
          endchar
        </CharString>
        <CharString name="quotedblbase">
          -245 -123 224 hstem
          3 324 vstem
          146 -123 rmoveto
          61 hlineto
          120 224 rlineto
          -97 hlineto
          -227 435 callsubr
          -95 hlineto
          endchar
        </CharString>
        <CharString name="quotedblleft">
          -244 421 callsubr
          12 325 vstem
          193 695 rmoveto
          -61 hlineto
          -120 -224 rlineto
          97 hlineto
          228 224 rmoveto
          -61 hlineto
          -117 -224 -4 callgsubr
          endchar
        </CharString>
        <CharString name="quotedblright">
          -245 421 callsubr
          12 325 vstem
          155 471 rmoveto
          61 hlineto
          121 224 rlineto
          -97 hlineto
          -228 435 callsubr
          -94 hlineto
          endchar
        </CharString>
        <CharString name="quoteleft">
          -388 421 callsubr
          11 182 vstem
          193 695 rmoveto
          -62 hlineto
          -120 -224 rlineto
          98 hlineto
          endchar
        </CharString>
        <CharString name="quoteright">
          -387 421 callsubr
          12 182 vstem
          12 352 callsubr
        </CharString>
        <CharString name="quotesinglbase">
          -387 -123 224 hstem
          2 181 vstem
          2 -123 rmoveto
          62 hlineto
          119 224 rlineto
          -98 hlineto
          endchar
        </CharString>
        <CharString name="quotesingle">
          -409 444 237 hstem
          44 71 432 callsubr
          endchar
        </CharString>
        <CharString name="r">
          -242 21 -21 439 73 377 callsubr
          151 507 -12 callgsubr
        </CharString>
        <CharString name="racute">
          -242 21 -21 439 73 48 347 callsubr
          361 716 59 callgsubr
          -86 -53 -12 callgsubr
        </CharString>
        <CharString name="radical">
          187 354 68 hstem
          33 768 vstem
          219 422 rmoveto
          -171 hlineto
          -15 -68 rlineto
          123 hlineto
          202 -552 rlineto
          111 hlineto
          332 1096 rlineto
          -83 hlineto
          -61 -202 -112 -365 -62 -202 rrcurveto
          -44 -145 -26 -115 -1 vvcurveto
          2 -36 113 -51 140 vhcurveto
          endchar
        </CharString>
        <CharString name="rcaron">
          -242 21 -21 439 73 47 347 callsubr
          240 559 -78 callsubr
          -13 -52 -12 callgsubr
        </CharString>
        <CharString name="registered">
          -119 360 46 145 36 64 36 54 47 hstem
          10 49 100 44 54 45 91 46 vstem
          203 651 rmoveto
          22 hlineto
          21 11 -8 -24 -20 -9 -12 -20 hvcurveto
          -25 hlineto
          -44 100 rmoveto
          -214 44 78 19 vlineto
          46 -78 rlineto
          52 hlineto
          -54 86 rlineto
          24 11 12 21 28 vvcurveto
          42 -25 26 -57 vhcurveto
          6 -281 rmoveto
          -102 -65 68 99 100 65 68 102 100 67 -68 -100 -99 -67 -68 -100 hvcurveto
          -1 382 rmoveto
          -125 -90 -91 -124 -124 90 -89 125 124 90 89 124 124 -90 91 -124 hvcurveto
          endchar
        </CharString>
        <CharString name="ring">
          -147 614 53 108 52 hstem
          104 53 107 52 vstem
          104 720 125 callsubr
          endchar
        </CharString>
        <CharString name="s">
          333 callsubr
          274 callsubr
          349 490 32 callgsubr
        </CharString>
        <CharString name="sacute">
          333 callsubr
          48 156 274 callsubr
          188 560 -25 callgsubr
          62 -226 32 callgsubr
        </CharString>
        <CharString name="scaron">
          333 callsubr
          48 156 274 callsubr
          349 490 -89 callgsubr
          -80 145 -21 callsubr
        </CharString>
        <CharString name="scircumflex">
          333 callsubr
          48 156 274 callsubr
          349 490 -89 callgsubr
          -163 301 -35 callgsubr
          endchar
        </CharString>
        <CharString name="section">
          -56 -203 75 732 76 -31 -20 hstemhm
          51 81 -77 84 234 83 -77 79 hintmask 10110010
          132 300 rmoveto
          25 9 25 17 19 vhcurveto
          30 -14 33 -13 31 -14 rrcurveto
          70 -33 57 -29 -63 vvcurveto
          -28 -9 -25 -16 -19 vhcurveto
          -26 14 -28 12 -27 12 rrcurveto
          -78 34 -63 28 69 vvcurveto
          285 349 rmoveto
          hintmask 11001010
          22 -43 -56 9 -49 hhcurveto
          -118 -96 -56 -116 -43 15 -30 23 -23 hvcurveto
          hintmask 10110100
          -26 -29 -16 -38 -46 vvcurveto
          -118 100 -41 91 -40 vhcurveto
          85 -38 46 -27 -58 vvcurveto
          -69 -51 -36 -85 -66 -67 22 34 -45 vhcurveto
          -87 vlineto
          -29 49 67 -15 65 hhcurveto
          122 94 61 120 46 -16 34 -25 26 hvcurveto
          hintmask 11001010
          27 30 16 40 49 vvcurveto
          111 -85 41 -85 39 vhcurveto
          -83 38 -66 11 68 vvcurveto
          60 50 33 83 51 59 -17 -23 35 vhcurveto
          endchar
        </CharString>
        <CharString name="semicolon">
          -343 321 116 hstem
          70 117 vstem
          70 379 rmoveto
          -33 25 -25 33 33 26 25 33 32 -26 26 -33 -33 -25 -26 -32 vhcurveto
          -78 -502 384 callgsubr
        </CharString>
        <CharString name="seven">
          -117 21 -21 585 69 hstem
          12 427 vstem
          12 654 rmoveto
          -69 343 vlineto
          -271 -585 rlineto
          84 hlineto
          271 585 rlineto
          69 vlineto
          endchar
        </CharString>
        <CharString name="six">
          -42 -11 73 288 71 179 73 hstem
          52 79 277 82 vstem
          284 62 rmoveto
          -84 -64 68 147 -5 hvcurveto
          41 37 56 32 63 hhcurveto
          71 50 -52 -84 -89 -47 -63 -77 hvcurveto
          160 408 callgsubr
          -107 -168 -209 -176 78 -131 154 124 82 91 133 124 -72 84 -121 -60 -62 -26 -43 -41 hvcurveto
          132 16 71 116 132 hhcurveto
          34 30 -7 -12 27 hvcurveto
          endchar
        </CharString>
        <CharString name="slash">
          -165 -102 809 hstem
          -9 445 vstem
          -9 -102 rmoveto
          80 hlineto
          365 809 rlineto
          -81 hlineto
          endchar
        </CharString>
        <CharString name="space">
          -324 endchar
        </CharString>
        <CharString name="sterling">
          -46 0 69 223 63 229 75 hstemhm
          143 81 -64 80 hintmask 11101000
          161 69 rmoveto
          43 27 36 42 112 vvcurveto
          13 -1 14 -1 15 vhcurveto
          174 63 hlineto
          hintmask 11110000
          -180 hlineto
          -4 34 -4 33 31 vvcurveto
          91 47 40 84 37 29 -8 -20 34 vhcurveto
          78 vlineto
          15 -30 -39 10 -39 hhcurveto
          -129 -75 -75 -135 -27 4 -33 4 -34 hvcurveto
          hintmask 11101000
          -85 -63 92 hlineto
          1 -15 1 -14 -14 vvcurveto
          -100 -21 -46 -78 -37 vhcurveto
          -66 422 69 vlineto
          endchar
        </CharString>
        <CharString name="summation">
          -127 -200 71 732 71 hstem
          30 449 vstem
          479 674 rmoveto
          -449 -71 hlineto
          179 -359 -179 -373 rlineto
          -71 449 71 -358 vlineto
          178 373 -178 359 rlineto
          358 hlineto
          endchar
        </CharString>
        <CharString name="t">
          -199 -5 70 378 64 hstem
          103 79 vstem
          182 443 -24 callsubr
        </CharString>
        <CharString name="tbar">
          -191 -5 70 196 58 126 62 hstem
          107 80 vstem
          187 261 rmoveto
          140 58 -140 126 139 62 -139 126 -80 -126 -81 -62 81 -126 -81 -58 81 -113 hlineto
          -97 44 -56 106 21 34 7 11 19 vhcurveto
          75 vlineto
          -13 -17 -27 -10 -25 hhcurveto
          -51 -24 28 53 hvcurveto
          endchar
        </CharString>
        <CharString name="tcaron">
          -199 -5 70 378 64 60 66 hstem
          103 79 vstem
          417 760 rmoveto
          -91 hlineto
          -85 -193 rlineto
          65 hlineto
          -124 -124 -24 callsubr
        </CharString>
        <CharString name="thorn">
          112 callsubr
          643 rmoveto
          -78 -904 159 callsubr
        </CharString>
        <CharString name="three">
          -102 -6 73 229 69 223 73 hstemhm
          314 82 -62 81 hintmask 11101000
          58 547 rmoveto
          22 34 52 19 46 hhcurveto
          hintmask 11110000
          75 49 57 callgsubr
          -136 -52 -54 -19 -18 -28 vhcurveto
          endchar
        </CharString>
        <CharString name="threesuperior">
          -243 388 57 137 55 131 58 hstemhm
          212 66 -53 65 hintmask 11101000
          103 637 rmoveto
          -55 24 vlineto
          64 34 -27 -44 -40 -30 -26 -49 -38 -37 8 20 -36 hvcurveto
          -60 vlineto
          -16 31 48 -9 35 hhcurveto
          92 49 51 69 58 -43 41 -48 4 hvcurveto
          hintmask 11110000
          48 11 31 35 53 vvcurveto
          62 -45 54 -92 -35 -37 -13 -13 -22 vhcurveto
          -63 vlineto
          18 28 36 13 28 hhcurveto
          44 29 -19 -44 -45 -39 -23 -46 hvcurveto
          endchar
        </CharString>
        <CharString name="tilde">
          -147 658 399 callgsubr
          50 338 hintmask 10100000
          339 761 102 callgsubr
          hintmask 01100000
          -62 callsubr
          hintmask 10100000
          165 callsubr
        </CharString>
        <CharString name="trademark">
          126 602 72 -54 54 hstemhm
          89 60 hintmask 01100000
          266 331 rmoveto
          60 hlineto
          9 155 rlineto
          6 82 0 34 0 vvcurveto
          0 8 -29 31 -87 vhcurveto
          52 -148 rlineto
          61 hlineto
          56 148 rlineto
          hintmask 10100000
          31 84 10 32 0 vvcurveto
          0 -2 -38 6 -78 vhcurveto
          10 -155 rlineto
          60 hlineto
          -25 343 rlineto
          -79 hlineto
          -61 -162 rlineto
          -22 -61 -15 -45 0 vvcurveto
          0 -11 43 -23 63 vhcurveto
          hintmask 01100000
          -57 162 rlineto
          -78 hlineto
          -291 -54 rmoveto
          87 -290 60 290 85 54 -232 hlineto
          endchar
        </CharString>
        <CharString name="two">
          -74 0 69 517 75 hstem
          348 82 vstem
          147 188 callgsubr
          47 60 209 callgsubr
        </CharString>
        <CharString name="twosuperior">
          -203 392 55 320 59 hstem
          245 66 vstem
          47 392 rmoveto
          279 55 -190 hlineto
          99 74 76 92 82 vvcurveto
          87 -68 44 -73 -43 -38 -16 -17 -28 vhcurveto
          -69 vlineto
          25 31 39 18 37 hhcurveto
          43 34 -23 -54 -79 -101 -97 -97 -73 hvcurveto
          endchar
        </CharString>
        <CharString name="u">
          255 callgsubr
          hstemhm
          67 79 242 79 hintmask 10110000
          388 507 rmoveto
          -279 vlineto
          -76 callgsubr
          hintmask 01110000
          191 callsubr
        </CharString>
        <CharString name="uacute">
          164 callgsubr
          433 716 59 callgsubr
          79 -53 rmoveto
          -279 vlineto
          -76 callgsubr
          hintmask 01111000
          191 callsubr
        </CharString>
        <CharString name="ubreve">
          255 callgsubr
          557 57 hstemhm
          67 79 -38 397 callsubr
          -49 79 hintmask 10101100
          372 716 rmoveto
          121 callgsubr
          -65 hlineto
          -15 callsubr
          hintmask 10110010
          -49 -209 rmoveto
          -279 vlineto
          -76 callgsubr
          hintmask 01110010
          191 callsubr
        </CharString>
        <CharString name="ucircumflex">
          164 callgsubr
          269 665 rmoveto
          -42 callgsubr
          204 -53 rmoveto
          -279 vlineto
          -76 callgsubr
          hintmask 01111000
          191 callsubr
        </CharString>
        <CharString name="udieresis">
          255 callgsubr
          585 103 hstemhm
          67 79 -28 103 99 103 -35 79 hintmask 10101100
          371 585 -47 callgsubr
          hintmask 10110010
          218 -78 rmoveto
          -279 vlineto
          -76 callgsubr
          hintmask 01110010
          191 callsubr
        </CharString>
        <CharString name="ugrave">
          255 callgsubr
          559 156 hstemhm
          67 79 242 79 hintmask 10111000
          304 559 rmoveto
          -98 156 rlineto
          53 callgsubr
          153 -52 rmoveto
          -279 vlineto
          -76 callgsubr
          hintmask 01111000
          191 callsubr
        </CharString>
        <CharString name="uhungarumlaut">
          164 callgsubr
          379 560 rmoveto
          134 156 rlineto
          -94 hlineto
          -101 -156 rlineto
          32 156 rmoveto
          -92 hlineto
          -96 -156 rlineto
          61 hlineto
          165 -332 rmoveto
          -76 callgsubr
          hintmask 01111000
          -88 79 507 -79 vlineto
          endchar
        </CharString>
        <CharString name="umacron">
          255 callgsubr
          610 56 hstemhm
          67 79 242 79 hintmask 10111000
          408 666 273 callsubr
          -20 -103 rmoveto
          -279 vlineto
          -76 callgsubr
          hintmask 01111000
          191 callsubr
        </CharString>
        <CharString name="underscore">
          -7 -100 69 hstem
          28 505 vstem
          28 -100 rmoveto
          505 69 -505 hlineto
          endchar
        </CharString>
        <CharString name="uni00A0">
          -324 endchar
        </CharString>
        <CharString name="uni00AD">
          240 callgsubr
        </CharString>
        <CharString name="uni00B5">
          -22 -6 71 -44 -21 hstemhm
          279 callgsubr
          hintmask 10110000
          394 507 rmoveto
          -279 vlineto
          -101 -46 -62 -75 -61 -61 38 75 vhcurveto
          329 -78 -686 78 211 vlineto
          -24 28 38 -14 44 hhcurveto
          63 46 27 56 24 hvcurveto
          hintmask 01110000
          -77 79 507 vlineto
          endchar
        </CharString>
        <CharString name="uni0122">
          102 297 callsubr
          43 78 237 71 229 79 hstem
          48 85 389 81 vstem
          245 -243 433 callgsubr
          274 429 -84 callgsubr
        </CharString>
        <CharString name="uni0123">
          166 callsubr
          46 192 411 callsubr
          438 752 rmoveto
          -65 hlineto
          -111 -192 rlineto
          91 hlineto
          -90 -477 -91 callsubr
        </CharString>
        <CharString name="uni0136">
          5 219 callsubr
          400 callgsubr
          77 177 callsubr
          88 -917 431 callsubr
          24 384 245 callsubr
        </CharString>
        <CharString name="uni0137">
          -88 219 callsubr
          hstem
          73 78 vstem
          151 703 rmoveto
          -78 -703 78 hlineto
          -34 -243 431 callsubr
          52 317 126 callgsubr
        </CharString>
        <CharString name="uni013B">
          -91 297 callsubr
          51 73 400 callgsubr
          139 -243 433 callgsubr
          -65 124 190 callsubr
        </CharString>
        <CharString name="uni013C">
          -335 219 callsubr
          200 callgsubr
          707 -79 hlineto
          -90 -950 383 callsubr
        </CharString>
        <CharString name="uni0145">
          105 219 callsubr
          577 97 417 callgsubr
          218 -243 433 callgsubr
          -225 51 rmoveto
          -69 callsubr
          endchar
        </CharString>
        <CharString name="uni0146">
          -28 219 callsubr
          443 71 331 callgsubr
          149 -243 433 callgsubr
          -82 558 -40 callgsubr
        </CharString>
        <CharString name="uni0156">
          -20 -243 192 72 415 callsubr
          420 callsubr
          157 -243 431 callsubr
          -84 655 rmoveto
          93 hlineto
          102 49 -47 -88 -74 -46 -60 -96 hvcurveto
          -102 hlineto
          190 -56 rmoveto
          86 27 48 68 2 93 rrcurveto
          127 -79 80 -159 vhcurveto
          -169 -674 81 266 97 hlineto
          8 hlineto
          165 -266 rlineto
          97 hlineto
          endchar
        </CharString>
        <CharString name="uni0157">
          -242 219 callsubr
          439 73 377 callsubr
          -20 -243 433 callgsubr
          87 558 -12 callgsubr
        </CharString>
</ttFont>
